<?xml version="1.0" encoding="UTF-8"?>
<svg id="rnc_x5F_log" xmlns="http://www.w3.org/2000/svg" viewBox="0 0 523.92 463.61">
  <g id="layer1">
    <path id="under" d="M506.8,354.04c-28.2,0-11.73.41-26.61,0-7.89-.23-14.88.9-13.3,13.08,1.58,12.18,2.27,34.87-13.08,35.4-6.54.23-11.73-4.51-11.73-17.81s-.68-215.81-.68-215.81c-.36-131.02-83.43-160.72-217.61-159.88C108.79,9.74,9.11,35.61,9.12,162.36c0,0-.46,244.9.45,271.28.36,10.37,6.09,13.43,13.76,13.53,17.14.23,59.76.79,75.54.45,10.82-.23,15.48-5.4,16.01-20.97.49-14.6-.23-38.79.23-60.43.15-7.3,2.71-12.63,10.15-12.85,18.86-.57,91.36-.58,105.76-.23,18.27.45,21.2.23,21.65,19.17.54,22.51.45,36.31-.23,53.67-.72,18.55,5.41,20.3,15.33,20.52,14.65.33,48.48-.48,65.4-.23,22.49.32,22.07-6.53,22.32-35.85.12-12.63.02-56.62-.45-76.67-.12-4.98,2.48-8.51,5.86-8.57,13.79-.23,16.66,35.86,20.07,53.89,12.65,66.86,41.89,75.38,68.55,75.54,33.43.21,65.28-27.5,65.4-84.56.02-8.59-1.8-16.01-8.12-16.01Z" fill="#fff" fill-rule="evenodd" stroke="#fff" stroke-miterlimit="10" stroke-width="18"/>
    <path id="back" d="M9.12,162.36c0,32.82,1.13,35.46,20.3,35.4,18.96-.06,393.23-.45,393.5-.45,14.65.18,18.56-3.38,18.49-28.41-.36-131.02-83.43-160.72-217.61-159.88C108.79,9.74,9.11,35.61,9.12,162.36Z" fill="#1404bd" fill-rule="evenodd"/>
    <path id="star1" d="M100.67,165.29l-13-39.12-41.04-.15,33.18-24.45-12.54-39.08,33.51,24,33.29-24-12.47,39.29,33.12,24.24-41.22.28-12.82,38.99Z" fill="#fff" fill-rule="evenodd"/>
    <path id="star2" d="M226.5,164.82l-13-39.12-41.04-.15,33.18-24.45-12.54-39.08,33.51,24,33.29-24-12.47,39.29,33.12,24.24-41.22.28-12.82,38.99Z" fill="#fff" fill-rule="evenodd"/>
    <path id="star3" d="M352.11,165.28l-13-39.12-41.04-.15,33.18-24.45-12.54-39.08,33.51,24,33.29-24-12.47,39.29,33.12,24.24-41.22.28-12.82,38.99Z" fill="#fff" fill-rule="evenodd"/>
    <path id="trunk" d="M26.25,210.84c-11.86-.07-16.01,3.16-16.01,13.3,0,20.99-1.59,183.11-.68,209.49.36,10.37,6.09,13.43,13.76,13.53,17.14.23,59.76.79,75.54.45,10.82-.23,15.48-5.4,16.01-20.97.49-14.6-.23-38.79.23-60.43.15-7.3,2.71-12.63,10.15-12.85,18.86-.57,91.36-.58,105.76-.23,18.27.45,21.2.23,21.65,19.17.54,22.51.45,36.31-.23,53.67-.72,18.55,5.41,20.3,15.33,20.52,14.65.33,48.48-.48,65.4-.23,22.49.32,22.07-6.53,22.32-35.85.12-12.63.02-56.62-.45-76.67-.12-4.98,2.48-8.51,5.86-8.57,13.79-.23,16.66,35.86,20.07,53.89,12.65,66.86,41.89,75.38,68.55,75.54,33.43.21,65.28-27.5,65.4-84.56.02-8.59-1.8-16.01-8.12-16.01-28.2,0-11.73.41-26.61,0-7.89-.23-14.88.9-13.3,13.08,1.58,12.18,2.27,34.87-13.08,35.4-6.54.23-11.73-4.51-11.73-17.81s-.94-148.84-1.35-159.66c-.23-5.86-.45-14.66-12.18-14.43-14.65.29-378.52.35-402.3.23h0Z" fill="#de0100" fill-rule="evenodd"/>
  </g>
</svg>