<?xml version="1.0" encoding="UTF-8"?>
<svg id="accepted" xmlns="http://www.w3.org/2000/svg" viewBox="0 0 9130.91 1577.14">
  <g>
    <rect x="6420.61" width="2710.3" height="1577.14" rx="145.68" ry="145.68" fill="#fff"/>
    <g>
      <polygon points="7614.6 1130.29 7436.33 1130.29 7547.75 445.52 7726.04 445.52 7614.6 1130.29" fill="#006cb5" fill-rule="evenodd"/>
      <path d="M7286.36,445.53l-169.97,470.97-20.13-101.42.03.04-59.99-307.91s-7.25-61.67-84.58-61.67h-280.96c-9.15,0-9.66,7.91-3.3,11.58,0,0,85.96,17.86,186.49,78.31l154.88,594.89h185.74l283.65-684.78h-191.87Z" fill="#006cb5" fill-rule="evenodd"/>
      <path d="M7096.29,815.11l-.03-.03-59.95-307.88s-7.25-61.67-84.58-61.67h-280.96c-9.14,0-9.66,7.91-3.3,11.58h.06l.03.03.17.03.14.03.17.03.32.09.12.03.54.11.66.14.2.06.57.11.46.11.46.12.78.17.23.06,1.12.29h.03l1.2.32.38.09.97.23.74.2.69.17,1.24.31.32.09,1.66.46h.06l1.7.46.55.14,1.31.37,1.07.29.89.26,1.63.46.44.11,2.12.63.14.03,2.09.63.72.2,1.64.49,1.34.4,1.06.32,2.04.64.46.14,2.61.83.17.03,2.5.8.89.26,1.89.63,1.64.52,1.2.43,2.41.77.51.2,3.01,1,.26.09,2.81.98,3.15,1.12,1.89.66,1.35.49,10.12,3.73,1.2.43,2.3.89,2.15.8,1.43.57,3.1,1.21.51.23c50.46,19.93,118.47,53.53,185.02,107.35,123.8,100.23,164.21,225.16,164.21,225.16h0ZM7096.26,815.09l.03.03-.03-.03Z" fill="#faa841" fill-rule="evenodd"/>
      <path d="M8492.43,888.06l93.69-256.26,52.7,256.26h-146.4ZM8688.61,1130.29h163.7l-142.73-684.78h-143.33c-66.2,0-82.3,51.03-82.3,51.03l-265.88,633.75h185.82l37.18-101.71h226.64l20.9,101.71Z" fill="#006cb5" fill-rule="evenodd"/>
      <path d="M8232.01,610.19l25.44-147.08c-165.51-62.93-458.91-26.45-458.91,196.84,0,176.93,246.59,179.13,246.59,272.03s-221.17,76.28-294.15,17.69l-26.53,153.73c166.9,81.12,506.46,40.75,506.46-195.75,0-178.04-248.8-194.61-248.8-272.01s173.62-67.48,249.91-25.44Z" fill="#006cb5" fill-rule="evenodd"/>
    </g>
  </g>
  <g>
    <rect x="3210.3" width="2710.3" height="1577.14" rx="145.68" ry="145.68" fill="#fff"/>
    <circle cx="4876.89" cy="787.9" r="471.58" fill="#016eaf"/>
    <circle cx="4254.01" cy="787.9" r="471.58" fill="#e71b24"/>
    <path d="M4405.31,788.57c0,141.08,61.96,267.69,160.14,354.11,98.19-86.42,160.14-213.03,160.14-354.11s-61.96-267.69-160.14-354.11c-98.19,86.42-160.14,213.03-160.14,354.11Z" fill="#6b6bbd"/>
  </g>
  <g>
    <rect width="2710.3" height="1577.14" rx="145.68" ry="145.68" fill="#fff"/>
    <circle cx="1043.71" cy="788.57" r="471.58" fill="#e71b24"/>
    <circle cx="1666.59" cy="788.57" r="471.58" fill="#fc9e22"/>
    <path d="M1195.01,788.57c0,141.08,61.96,267.69,160.14,354.11,98.19-86.42,160.14-213.03,160.14-354.11s-61.96-267.69-160.14-354.11c-98.19,86.42-160.14,213.03-160.14,354.11Z" fill="#fe5f00"/>
  </g>
</svg>