<?xml version="1.0" encoding="UTF-8"?>
<svg id="Layer_1" xmlns="http://www.w3.org/2000/svg" viewBox="0 0 386.64 258.72">
  <path d="M37.21,9h312.21c7.77,0,14.82,3.17,19.93,8.28,5.11,5.11,8.28,12.17,8.28,19.93v184.29c0,7.76-3.17,14.82-8.28,19.93-5.11,5.11-12.17,8.28-19.93,8.28H37.21c-7.77,0-14.82-3.17-19.93-8.28-5.11-5.11-8.28-12.17-8.28-19.93V37.21c0-7.77,3.17-14.82,8.28-19.93,5.11-5.11,12.17-8.28,19.93-8.28h0ZM349.43,20.52H37.21c-4.58,0-8.76,1.88-11.79,4.91-3.03,3.03-4.91,7.2-4.91,11.79v184.29c0,4.58,1.88,8.76,4.91,11.79,3.03,3.03,7.2,4.91,11.79,4.91h312.21c4.58,0,8.76-1.88,11.79-4.91,3.03-3.03,4.91-7.2,4.91-11.79V37.21c0-4.58-1.88-8.76-4.91-11.79-3.03-3.03-7.2-4.91-11.79-4.91Z" stroke="#000" stroke-miterlimit="10" stroke-width="18"/>
  <path d="M72.14,162.67c-3.18,0-5.76,2.58-5.76,5.76s2.58,5.76,5.76,5.76h106.22c3.18,0,5.76-2.58,5.76-5.76s-2.58-5.76-5.76-5.76h-106.22Z" stroke="#000" stroke-miterlimit="10" stroke-width="18"/>
  <path d="M18.77,88.42s-3.16,11.52-3.16,11.52c0,0,263.74,0,354.6,0l2.39-11.52H18.77Z" stroke="#000" stroke-miterlimit="10" stroke-width="18"/>
</svg>