<?xml version="1.0" encoding="UTF-8"?>
<svg id="clk-g" xmlns="http://www.w3.org/2000/svg" viewBox="0 0 1000 1000">
  <g id="os-cl">
    <path d="M500,69c58.22,0,114.65,11.39,167.74,33.84,51.32,21.7,97.41,52.79,137.02,92.4,39.6,39.6,70.69,85.7,92.4,137.02,22.46,53.09,33.84,109.53,33.84,167.74s-11.39,114.65-33.84,167.74c-21.7,51.32-52.79,97.41-92.4,137.02-39.6,39.6-85.7,70.69-137.02,92.4-53.09,22.46-109.53,33.84-167.74,33.84s-114.65-11.39-167.74-33.84c-51.32-21.7-97.42-52.79-137.02-92.4-39.6-39.6-70.69-85.7-92.4-137.02-22.46-53.09-33.84-109.53-33.84-167.74s11.39-114.65,33.84-167.74c21.7-51.32,52.79-97.42,92.4-137.02,39.6-39.6,85.7-70.69,137.02-92.4,53.09-22.46,109.53-33.84,167.74-33.84M500,0C223.86,0,0,223.86,0,500s223.86,500,500,500,500-223.86,500-500S776.14,0,500,0h0Z" fill="#555" stroke-width="0"/>
  </g>
  <line id="hr-hand" x1="500" y1="500" x2="500" y2="187.08" fill="none" stroke="#555" stroke-linecap="round" stroke-miterlimit="10" stroke-width="69"/>
  <line id="min-hand" x1="500" y1="500" x2="703.85" y2="500" fill="none" stroke="#555" stroke-linecap="round" stroke-miterlimit="10" stroke-width="69"/>
</svg>