<?xml version="1.0" encoding="UTF-8"?>
<svg id="mn-g" xmlns="http://www.w3.org/2000/svg" viewBox="0 0 1000 1000">
  <g id="os-cl">
    <path d="M500,69c58.22,0,114.65,11.39,167.74,33.84,51.32,21.7,97.41,52.79,137.02,92.4,39.6,39.6,70.69,85.7,92.4,137.02,22.46,53.09,33.84,109.53,33.84,167.74s-11.39,114.65-33.84,167.74c-21.7,51.32-52.79,97.41-92.4,137.02-39.6,39.6-85.7,70.69-137.02,92.4-53.09,22.46-109.53,33.84-167.74,33.84s-114.65-11.39-167.74-33.84c-51.32-21.7-97.42-52.79-137.02-92.4-39.6-39.6-70.69-85.7-92.4-137.02-22.46-53.09-33.84-109.53-33.84-167.74s11.39-114.65,33.84-167.74c21.7-51.32,52.79-97.42,92.4-137.02,39.6-39.6,85.7-70.69,137.02-92.4,53.09-22.46,109.53-33.84,167.74-33.84M500,0C223.86,0,0,223.86,0,500s223.86,500,500,500,500-223.86,500-500S776.14,0,500,0h0Z" fill="#555"/>
  </g>
  <path id="m-sign" d="M704.06,555.19c-6.1-17-16.07-31.49-30.47-44.28-29.3-26.02-78.65-45.42-150.52-59.12v-137.89c55.08,6.84,73.16,30.62,81.97,49.21,6.92,14.6,21.64,24.03,37.52,24.03,14.84,0,28.19-7.65,35.73-20.47,7.45-12.66,7.65-27.85.54-40.63-13.65-24.53-34.34-44.08-61.52-58.09-25.82-13.32-57.44-21.47-94.25-24.4v-35.12c0-15.94-12.93-28.87-28.87-28.87s-28.87,12.92-28.87,28.87v34.89c-42.98,3.35-80.26,15.15-108.86,34.67-36.69,25.05-56.09,60.87-56.09,103.59,0,38.35,12.01,66.36,37.8,88.15,26.35,22.27,67.04,38.34,127.15,50.06v161.32c-20-3.09-37.24-8.68-51.51-16.76-20.38-11.53-35.33-28.1-45.69-50.67-6.82-14.86-21.63-24.46-37.72-24.46h-.51c-14.27,0-27.36,7.21-35,19.29-7.57,11.96-8.49,26.71-2.46,39.46,28.77,60.79,88.2,96.24,172.9,103.69v39.88c0,15.94,12.92,28.87,28.87,28.87s28.87-12.93,28.87-28.87v-38.97c58.27-2.94,104.42-17.35,137.34-42.98,33.45-26.05,51.12-62.34,51.12-104.94,0-19.55-2.37-35.27-7.47-49.47ZM404.92,417.08c-14.31-10.35-19.89-22.14-19.89-42.07,0-21.27,11.09-55.57,80.3-61.98v127.59c-28.13-6.71-47.74-14.38-60.41-23.54ZM600,661.78c-17.72,12.53-43.57,19.78-76.94,21.66v-152.68c36.56,8.2,61.8,17.73,78.07,29.35,17.81,12.72,25.07,27.59,25.07,51.35,0,21.09-8.82,38.02-26.21,50.32Z" fill="#555"/>
</svg>