<?xml version="1.0" encoding="UTF-8"?>
<svg id="ds-cn" xmlns="http://www.w3.org/2000/svg" viewBox="0 0 835.4 961.48">
  <g id="ds-g">
    <g id="ot-d">
      <path d="M565.94,69c6.73,0,13.46,1.86,19.38,5.58l164.02,102.96c11.6,7.28,18.14,20.46,16.92,34.11l-20.56,230.31c-.51,5.73-2.37,11.26-5.43,16.14l-261.98,417.32c-6.92,11.03-18.78,17.07-30.9,17.07-6.62,0-13.32-1.8-19.34-5.58l-341.94-214.65c-17.05-10.7-22.19-33.19-11.49-50.24L336.59,204.68c3.06-4.87,7.23-8.95,12.17-11.91l198.48-118.62c5.76-3.44,12.23-5.16,18.69-5.16M565.93,0c-19.04,0-37.75,5.16-54.09,14.93l-198.48,118.62c-14.23,8.5-26.4,20.41-35.21,34.45L16.18,585.32c-14.97,23.85-19.76,52.11-13.48,79.57,6.28,27.46,22.87,50.82,46.73,65.8l341.94,214.65c16.82,10.56,36.2,16.14,56.03,16.14,17.48,0,34.85-4.39,50.22-12.71,15.94-8.62,29.47-21.3,39.12-36.68l261.98-417.32c8.81-14.03,14.25-30.18,15.72-46.69l20.56-230.31c1.73-19.37-1.93-38.82-10.57-56.24-8.65-17.42-21.92-32.1-38.39-42.44l-164.02-102.96c-16.82-10.56-36.2-16.14-56.06-16.14h0Z" fill="#555"/>
    </g>
    <g id="hole-i">
      <circle cx="625.35" cy="192.93" r="45.88" fill="#555"/>
    </g>
    <g id="pct">
      <path d="M558.11,577.61c-2.53-17.24-13.15-31.84-31.54-43.38-18.01-11.3-35.63-14.44-52.39-9.34-16.49,5.03-31.89,18.78-45.76,40.88-13.68,21.8-19.39,41.48-16.97,58.49,2.46,17.35,12.99,31.97,31.31,43.46,12.44,7.81,24.72,11.73,36.66,11.73,5.33,0,10.6-.78,15.79-2.35,16.54-5,31.96-18.74,45.84-40.84,13.8-21.99,19.54-41.72,17.06-58.66ZM507.38,615.13c-9.73,15.5-18.35,25.04-25.6,28.35-6.63,3.02-13.74,2.04-21.73-2.97-8.17-5.13-12.21-11.15-12.33-18.39-.14-7.95,4.7-19.8,14.38-35.22,9.68-15.43,18.27-24.96,25.53-28.34,2.49-1.16,5.05-1.74,7.72-1.74,4.42,0,9.13,1.59,14.22,4.79,7.98,5.01,11.93,11.01,12.08,18.33.15,8.04-4.65,19.87-14.27,35.19Z" fill="#555"/>
      <path d="M336.04,469.85c12.42,7.8,24.66,11.71,36.56,11.71,5.35,0,10.63-.79,15.82-2.38,16.49-5.03,31.89-18.78,45.76-40.88,13.68-21.79,19.39-41.47,16.97-58.49-2.46-17.35-13-31.97-31.31-43.46-18-11.3-35.65-14.46-52.45-9.38-16.54,5-31.97,18.74-45.84,40.84-13.8,21.99-19.54,41.72-17.05,58.66,2.53,17.24,13.14,31.84,31.54,43.38ZM355.22,388.94c9.68-15.43,18.27-24.96,25.53-28.34,2.49-1.16,5.05-1.74,7.72-1.74,4.42,0,9.13,1.59,14.23,4.79,7.99,5.01,11.94,11.01,12.07,18.33.15,8.03-4.65,19.87-14.27,35.19-9.73,15.5-18.35,25.04-25.61,28.35-6.63,3.02-13.74,2.05-21.73-2.97-8.17-5.13-12.21-11.15-12.33-18.39-.14-7.95,4.7-19.79,14.38-35.22Z" fill="#555"/>
      <path d="M558.11,438.48c.1-6.08-2.91-11.63-8.06-14.86-5.44-3.42-12.27-3.53-17.82-.29l-218.96,127.61c-5.25,3.06-8.44,8.51-8.54,14.59-.1,6.08,2.91,11.63,8.06,14.87,2.8,1.76,5.98,2.64,9.15,2.64,2.99,0,5.98-.78,8.67-2.35l218.96-127.62c5.25-3.06,8.45-8.52,8.54-14.59Z" fill="#555"/>
    </g>
  </g>
</svg>