<?xml version="1.0" encoding="UTF-8"?>
<svg id="ig-icon" xmlns="http://www.w3.org/2000/svg" xmlns:xlink="http://www.w3.org/1999/xlink" viewBox="0 0 998.24 998.3">
  <defs>
    <clipPath id="clippath">
      <rect id="clip" width="998.24" height="998.3" rx="181.72" ry="181.72" fill="none"/>
    </clipPath>
  </defs>
  <g id="fb-g">
    <g clip-path="url(#clippath)">
      <path id="fb-icon" d="M943.2,0H55.06C24.65.02,0,24.68,0,55.11v888.14c.02,30.41,24.68,55.06,55.11,55.06h478.17v-386.06h-129.66v-151.11h129.66v-111.21c0-128.96,78.73-199.16,193.77-199.16,55.1,0,102.45,4.11,116.25,5.94v134.79h-79.33c-62.59,0-74.71,29.74-74.71,73.39v96.24h149.65l-19.5,151.11h-130.15v386.06h253.94c30.43,0,55.1-24.65,55.11-55.08V55.06c-.01-30.41-24.68-55.06-55.11-55.06h0ZM943.2,0" fill="#555"/>
    </g>
  </g>
</svg>