<?xml version="1.0" encoding="UTF-8"?>
<svg id="im-cn" xmlns="http://www.w3.org/2000/svg" viewBox="0 0 1000 1000">
  <rect id="cn" width="1000" height="1000" fill='rgba(0,0,0,0)'/>
  <g>
    <path d="M661.62,393.8v208.5h-323.25v-208.5h323.25M674.68,367.92h-349.36c-7.08,0-12.82,5.74-12.82,12.82v234.6c0,7.08,5.74,12.82,12.82,12.82h349.36c7.08,0,12.82-5.74,12.82-12.82v-234.6c0-7.08-5.74-12.82-12.82-12.82h0Z" fill="#fff"/>
    <path d="M675.4,620.78h-350.8c-6.68,0-12.1-5.79-12.1-12.94v-27.44c0-3.86,1.61-7.51,4.39-9.97l110.38-97.52c4.75-4.19,11.68-3.91,16.11.66l74.19,76.5,72.14-39.11c4.05-2.19,8.9-1.78,12.58,1.07l80.21,62.17c3.14,2.43,5,6.33,5,10.47v23.17c0,7.14-5.42,12.94-12.1,12.94h0ZM336.71,620.67h326.59v-29.39l-69.22-53.66-73.23,39.7c-4.6,2.49-10.17,1.6-13.88-2.23l-72.61-74.87-97.65,86.27v34.17h0Z" fill="#fff"/>
    <path d="M549.09,492.97c-19.46,0-35.3-15.83-35.3-35.3s15.83-35.3,35.3-35.3,35.3,15.83,35.3,35.3-15.83,35.3-35.3,35.3ZM549.09,437.38c-11.19,0-20.3,9.1-20.3,20.3s9.1,20.3,20.3,20.3,20.3-9.1,20.3-20.3-9.1-20.3-20.3-20.3Z" fill="#fff"/>
  </g>
</svg>