<?xml version="1.0" encoding="UTF-8"?>
<svg id="ig-icon" xmlns="http://www.w3.org/2000/svg" viewBox="0 0 999.8 1000">
  <path id="outer" d="M997.26,294c-2.34-53.13-10.93-89.66-23.25-121.32-12.7-33.6-32.23-63.68-57.82-88.68-25.01-25.4-55.29-45.13-88.5-57.63-31.84-12.31-68.17-20.9-121.31-23.25-53.53-2.54-70.53-3.13-206.29-3.13s-152.76.59-206.1,2.93c-53.14,2.35-89.66,10.95-121.31,23.25-33.6,12.7-63.69,32.24-88.7,57.83-25.39,25-45.12,55.28-57.62,88.49-12.31,31.85-20.9,68.18-23.25,121.31-2.54,53.53-3.13,70.53-3.13,206.3s.59,152.76,2.93,206.09c2.35,53.14,10.95,89.67,23.25,121.32,12.7,33.6,32.42,63.68,57.81,88.69,25.01,25.39,55.29,45.13,88.5,57.63,31.85,12.31,68.17,20.9,121.32,23.24,53.33,2.35,70.33,2.94,206.1,2.94s152.76-.58,206.09-2.94c53.13-2.34,89.66-10.93,121.31-23.24,67.21-25.98,120.34-79.12,146.32-146.32,12.31-31.84,20.91-68.18,23.25-121.32,2.35-53.33,2.93-70.33,2.93-206.09s-.2-152.77-2.54-206.1h0ZM907.21,702.28c-2.15,48.84-10.36,75.21-17.19,92.79-16.8,43.57-51.38,78.14-94.94,94.94-17.58,6.83-44.15,15.04-92.79,17.18-52.75,2.35-68.56,2.93-201.99,2.93s-149.45-.58-202-2.93c-48.84-2.15-75.21-10.35-92.79-17.18-21.68-8.01-41.41-20.71-57.42-37.31-16.6-16.22-29.31-35.75-37.32-57.43-6.83-17.58-15.04-44.15-17.18-92.79-2.35-52.75-2.93-68.57-2.93-201.99s.58-149.45,2.93-201.99c2.15-48.84,10.35-75.2,17.18-92.79,8.01-21.69,20.72-41.42,37.52-57.44,16.21-16.6,35.74-29.3,57.42-37.31,17.58-6.83,44.15-15.04,92.79-17.19,52.75-2.34,68.57-2.93,201.99-2.93s149.45.59,202,2.93c48.84,2.16,75.21,10.36,92.79,17.19,21.68,8.01,41.41,20.71,57.42,37.31,16.61,16.21,29.31,35.75,37.32,57.44,6.83,17.58,15.04,44.14,17.19,92.79,2.34,52.75,2.93,68.56,2.93,201.99s-.59,149.05-2.93,201.79h0ZM907.21,702.28" fill="#555"/>
  <path id="inner" d="M500.1,243.21c-141.82,0-256.89,115.05-256.89,256.89s115.06,256.89,256.89,256.89,256.88-115.06,256.88-256.89-115.05-256.89-256.88-256.89h0ZM500.1,666.73c-92.01,0-166.64-74.62-166.64-166.63s74.63-166.64,166.64-166.64,166.63,74.62,166.63,166.64-74.62,166.63-166.63,166.63h0ZM500.1,666.73" fill="#555"/>
  <path id="dot" d="M827.12,233.05c0,33.12-26.86,59.97-59.98,59.97s-59.97-26.85-59.97-59.97,26.85-59.97,59.97-59.97,59.98,26.85,59.98,59.97h0ZM827.12,233.05" fill="#555"/>
</svg>