<svg xmlns="http://www.w3.org/2000/svg" viewBox="0 0 719.63 1000">
  <g id="logo-bw">
    <path id="bw-b-clock" d="M362.13,296c-2.29,0-4.57.03-6.85.07-.44,0-.88.01-1.31.02-2.2.05-4.39.12-6.58.2-.42.02-.83.04-1.25.05-2.19.09-4.37.2-6.54.34-.1,0-.2.01-.3.02-2.24.14-4.47.3-6.7.48-.44.04-.87.07-1.31.11-2.17.18-4.34.38-6.5.6-.37.04-.75.08-1.12.12-2.11.22-4.22.46-6.32.72-.17.02-.34.04-.5.06-2.19.27-4.38.57-6.56.88-.42.06-.85.12-1.27.18-2.15.31-4.29.65-6.42,1-.32.05-.64.11-.96.16-2.07.35-4.13.71-6.18,1.09-.21.04-.41.07-.62.11-2.15.4-4.29.83-6.43,1.27-.4.08-.81.17-1.21.25-2.12.45-4.24.91-6.35,1.39-.26.06-.51.12-.77.18-2.04.47-4.06.96-6.09,1.46-.24.06-.47.12-.71.17-2.11.53-4.2,1.08-6.29,1.65-.37.1-.75.2-1.12.31-2.1.58-4.2,1.17-6.28,1.78-.17.05-.35.11-.52.16-2.03.6-4.05,1.22-6.07,1.86-.24.08-.49.15-.73.23-2.06.66-4.12,1.33-6.17,2.02-.34.11-.68.23-1.01.34-2.08.71-4.15,1.43-6.21,2.18-.08.03-.16.06-.24.09-2.04.74-4.08,1.5-6.1,2.28-.24.09-.48.18-.72.28-2.02.78-4.04,1.58-6.04,2.39-.3.12-.59.24-.89.36-4.11,1.69-8.19,3.44-12.22,5.28-.24.11-.47.21-.71.32-1.98.9-3.94,1.82-5.9,2.76-.25.12-.5.24-.75.36-4.01,1.93-7.97,3.93-11.89,6-.22.12-.45.24-.67.35-1.93,1.02-3.84,2.06-5.75,3.12-.21.11-.41.23-.62.34-3.89,2.17-7.74,4.4-11.54,6.71-.21.13-.43.26-.64.39-1.87,1.14-3.72,2.29-5.57,3.46-.16.1-.33.21-.49.31-3.76,2.4-7.48,4.87-11.15,7.4-.2.14-.41.28-.61.42-1.8,1.25-3.6,2.52-5.37,3.8-.12.09-.24.17-.36.26-1.83,1.32-3.65,2.66-5.45,4.02l-.02-.53V72.59C145.18,32.5,112.68,0,72.59,0S0,32.5,0,72.59s4.44,574.81,4.44,574.81h0c0,.12,0,.37,0,.37l.19-.21c0,.15,0,.29,0,.44,0,194.4,160.06,352,357.5,352s357.5-157.6,357.5-352-160.06-352-357.5-352ZM522.31,802.84c-42.67,42.02-99.56,65.16-160.18,65.16s-117.51-23.14-160.18-65.16c-42.12-41.47-65.32-96.47-65.32-154.84s23.2-113.37,65.32-154.84c42.67-42.02,99.56-65.16,160.18-65.16s117.51,23.14,160.18,65.16c42.12,41.48,65.32,96.47,65.32,154.84s-23.2,113.37-65.32,154.84Z" fill="#000" stroke-width="0"/>
    <path id="bw-hands" d="M445.59,598.95c-11.35-11.3-29.71-11.26-41.01.09l-37.73,37.9-86.36-85.1c-11.41-11.24-29.77-11.11-41.01.3-11.24,11.41-11.11,29.77.3,41.01l106.18,104.63c5.65,5.57,13,8.34,20.35,8.34.24,0,.48-.01.72-.02.24,0,.49.02.73.02,7.44,0,14.89-2.85,20.55-8.54l57.37-57.63c11.3-11.35,11.26-29.71-.09-41.01Z" fill="#000" stroke-width="0"/>
  </g>
</svg>