<svg xmlns="http://www.w3.org/2000/svg" viewBox="0 0 719.63 1000">
  <g id="logo-color">
    <g id="b">
      <path id="b-clock" d="M362.13,296c-81.58,0-156.77,26.9-216.93,72.19l-.02-.53V72.59C145.18,32.5,112.68,0,72.59,0S0,32.5,0,72.59s4.44,574.81,4.44,574.81h0c0,.12,0,.37,0,.37l.19-.21c0,.15,0,.29,0,.44,0,194.4,160.06,352,357.5,352s357.5-157.6,357.5-352-160.06-352-357.5-352ZM522.31,802.84c-42.67,42.02-99.56,65.16-160.18,65.16s-117.51-23.14-160.18-65.16c-42.12-41.47-65.32-96.47-65.32-154.84s23.2-113.37,65.32-154.84c42.67-42.02,99.56-65.16,160.18-65.16s117.51,23.14,160.18,65.16c42.12,41.48,65.32,96.47,65.32,154.84s-23.2,113.37-65.32,154.84Z" fill="#007abc" stroke-width="0"/>
      <path id="clock" d="M362.13,428c60.62,0,117.51,23.14,160.18,65.16,42.12,41.48,65.32,96.47,65.32,154.84s-23.2,113.37-65.32,154.84c-42.67,42.02-99.56,65.16-160.18,65.16s-117.51-23.14-160.18-65.16c-42.12-41.47-65.32-96.47-65.32-154.84s23.2-113.37,65.32-154.84c42.67-42.02,99.56-65.16,160.18-65.16M362.13,296C164.69,296,4.63,453.6,4.63,648s160.06,352,357.5,352,357.5-157.6,357.5-352-160.06-352-357.5-352h0Z" fill="#0090da" stroke-width="0"/>
    </g>
    <g id="v">
      <path id="m-hand" d="M366.31,706.13c-7.35,0-14.7-2.78-20.35-8.34l-106.18-104.63c-11.41-11.24-11.54-29.6-.3-41.01,11.24-11.41,29.6-11.54,41.01-.3l106.18,104.63c11.41,11.24,11.54,29.6.3,41.01-5.68,5.76-13.17,8.65-20.66,8.65Z" fill="#a4ce4e" stroke-width="0"/>
      <path id="h-hand" d="M367.76,706.13c-7.4,0-14.8-2.81-20.46-8.45-11.35-11.3-11.39-29.66-.09-41.01l57.37-57.63c11.3-11.35,29.66-11.39,41.01-.09,11.35,11.3,11.39,29.66.09,41.01l-57.37,57.63c-5.67,5.69-13.11,8.54-20.55,8.54Z" fill="#0061a0" stroke-width="0"/>
      <path id="joint" d="M389.92,660.29c-.96-1.34-2.04-2.62-3.25-3.82l-19.9-19.34-.05-.05h0s-40.45,41.3-40.45,41.3l19.7,19.41c5.65,5.57,13,8.34,20.35,8.34.24,0,.48-.01.72-.02.24,0,.49.02.73.02,7.44,0,14.89-2.85,20.55-8.54l19.32-19.59-17.71-17.71Z" fill="#1e4c76" stroke-width="0"/>
    </g>
  </g>
</svg>