<?xml version="1.0" encoding="UTF-8"?>
<svg id="Layer_3" xmlns="http://www.w3.org/2000/svg" viewBox="0 0 791.33 457.32">
  <g>
    <path d="M5.47,52.23C192.96-1.8,380.15-8.97,577.17,8.44c3.8.34,6.77,3.45,6.91,7.27,1.9,50.54,3.8,104.95,5.7,155.44.16,4.29-3.27,7.85-7.56,7.86-7.84.02-15.31.05-22.77-.03-47.47-.49-94.81,1.71-141.93,7.71-80.44,10.25-157.9,32.39-232.99,63.43-31.52,13.03-65.06,29.28-96.66,43.36-4.08,1.82-8.84-.26-10.26-4.5C66.64,256.5,24.31,131.13.42,61.99c-1.42-4.1.88-8.56,5.05-9.76Z" fill="#fff"/>
    <path d="M89.97,277.43C63.86,204.35,37.88,131.63,11.92,58.98,194.93,6.6,381.04-2.42,570.03,17.01c1.98,50.83,3.97,101.72,5.95,152.42-10.28,0-19.73.08-29.17,0-45.21-.45-90.29,1.58-135.17,7.13-76.61,9.47-150.38,29.93-221.89,58.61-32.45,13.01-64.41,27.22-96.59,40.89-1.06.45-2.11.92-3.18,1.39h-.01Z" fill="#b31942"/>
    <path d="M89.97,277.43C63.86,204.35,37.88,131.63,11.92,58.98,94.02,35.49,176.75,20.71,260.08,13.32l32.85,186.92c-34.94,9.6-69.32,21.34-103.18,34.92-32.45,13.01-64.41,27.22-96.59,40.89-1.06.45-2.11.92-3.18,1.39h-.01Z" fill="#0a3161"/>
    <path d="M113.05,225.53c-10.31-37.23-20.6-74.46-30.89-111.68.15-.06.31-.11.46-.17,19.73,33.8,38.77,67.22,57.14,100.25,4.93-2.05,9.86-4.06,14.81-6.02-.62-39.78-.5-78.87.34-117.26.16-.04.31-.09.47-.13,8.97,35.66,17.91,71.29,26.83,106.91,6.54-2.37,13.09-4.66,19.67-6.87-11-46.53-22.03-93.1-33.1-139.69-8.31,1.9-16.61,3.91-24.89,6.02-1.11,37.32-1.53,75.32-1.25,113.97-.2.07-.39.15-.59.22-18.12-32.11-36.89-64.61-56.34-97.47-8.82,2.82-17.62,5.77-26.39,8.83,13.8,49.54,27.64,99.11,41.52,148.72,4.06-1.9,8.13-3.77,12.21-5.62h0Z" fill="#fff"/>
    <path d="M248.69,176.09l-9.75-48.51c3.99-25.43,8.42-50.34,13.28-74.72-4.5.7-8.99,1.44-13.48,2.21-3.11,18.9-5.97,38.08-8.59,57.55-.09.02-.18.04-.27.06-10.11-16.5-20.44-33.16-31.01-49.96-7.21,1.54-14.4,3.15-21.58,4.85,15.01,22.74,29.58,45.22,43.71,67.41,3.27,15.44,6.53,30.88,9.8,46.32,5.95-1.8,11.92-3.54,17.9-5.21h0Z" fill="#fff"/>
    <path d="M354.55,152.91c-.56-4.05-1.13-8.11-1.69-12.16-11.17,1.65-22.32,3.51-33.43,5.56-5.29-33.38-10.59-66.75-15.88-100.13-6.51.67-13.01,1.41-19.5,2.22,6.43,38.04,12.87,76.07,19.3,114.11,16.98-3.68,34.05-6.88,51.2-9.6h0Z" fill="#fff"/>
    <path d="M413.28,145.49c-.4-3.86-.8-7.72-1.21-11.59-11.9.99-23.78,2.21-35.62,3.66-1.54-12.27-3.07-24.53-4.61-36.8,10.13-.91,20.29-1.66,30.46-2.25-.41-3.77-.81-7.55-1.22-11.32-10.25.49-20.48,1.15-30.69,1.97-1.48-11.82-2.96-23.65-4.44-35.47,11.87-.61,23.75-1,35.66-1.18-.41-3.87-.81-7.74-1.22-11.6-18.56.11-37.09.73-55.56,1.87,4.96,36.44,9.92,72.88,14.88,109.33,17.78-2.72,35.64-4.93,53.58-6.62h-.01Z" fill="#fff"/>
    <path d="M441.03,143.29c-1.23-14.03-2.45-28.05-3.68-42.08,10.27-.26,20.56-.36,30.86-.3l-.74-10.69c-10.38-.17-20.74-.17-31.09,0-1.1-12.56-2.19-25.12-3.29-37.68,12.17.2,24.35.62,36.55,1.27l-.72-10.95c-18.88-1.18-37.73-1.82-56.55-1.94,3.41,34.58,6.81,69.16,10.22,103.74,6.13-.52,12.28-.97,18.43-1.37h0Z" fill="#fff"/>
    <path d="M525.16,141.66c-.97-27.9-1.93-55.8-2.9-83.7,8.28.87,16.55,1.84,24.84,2.92-.07-3.39-.13-6.78-.2-10.17-23.38-3.26-46.74-5.7-70.07-7.34l.67,10.87c8.31.5,16.62,1.11,24.94,1.82,1.33,28.43,2.65,56.87,3.98,85.3,6.24.03,12.49.13,18.75.29h-.01Z" fill="#fff"/>
    <path d="M546.93,154.49c-192.87-5.16-283.25,22.1-440,90" fill="none" stroke="#fff" stroke-miterlimit="10" stroke-width="3.6"/>
    <path d="M186.93,48.49c120.91-19.89,242.55-27.03,365.96-11.37" fill="none" stroke="#fff" stroke-miterlimit="10" stroke-width="3.6"/>
  </g>
  <g id="Nuts">
    <path d="M253.79,453.51c.02-35.37.05-70.74.07-106.11,15.74,34.51,31.47,68.44,47.22,102.03,10.51-.79,21.02-1.51,31.54-2.15.05-64.85.11-129.7.16-194.55-11.89.13-23.78.27-35.67.44-.03,35.28-.06,70.55-.09,105.83-15.63-34.53-31.25-69.49-46.88-105.1-10.8.19-21.59.39-32.39.61-.02,67.61-.04,135.22-.05,202.83,12.03-1.37,24.06-2.64,36.1-3.82Z"/>
    <path d="M385.26,429.29c10.64,10.78,24.19,15.82,40.66,15.4,16.47-.42,30.05-6.15,40.74-17.33,10.69-11.17,16.04-25.15,16.04-42.04,0-44.44,0-88.88,0-133.32-12.59,0-25.17.02-37.76.05-.01,45.02-.03,90.04-.04,135.06,0,6.42-1.82,11.61-5.46,15.59-3.64,3.98-8.14,6.03-13.51,6.14-5.37.12-9.85-1.74-13.44-5.58-3.59-3.84-5.38-8.98-5.38-15.43.03-45.21.05-90.41.08-135.62-12.59.08-25.17.17-37.75.28-.03,44.99-.07,89.98-.1,134.98-.01,17.1,5.3,31.04,15.94,41.81Z"/>
    <path d="M546.21,289.16c.02,51.57.05,103.15.07,154.72,12.6.32,25.21.75,37.8,1.28-.04-51.86-.07-103.71-.11-155.57,11.85.17,23.7.37,35.55.6-.01-12.51-.02-25.02-.03-37.53-36.28-.38-72.57-.59-108.86-.65,0,12.31,0,24.63,0,36.94,11.85.04,23.71.1,35.56.2h0Z"/>
    <path d="M660.98,443.65c9.38,5.86,19.04,9.26,28.98,10.14,14.87,1.32,27.65-2.96,38.33-13.19,10.68-10.22,16.02-23.42,16.02-39.49,0-12.51-3.09-23.67-9.27-33.33-6.18-9.65-17.17-21.18-32.99-34.22-8.56-6.96-14.46-12.36-17.71-16.29-3.24-3.93-4.87-7.95-4.87-12.07,0-4.49,1.44-8.13,4.34-10.94,2.89-2.81,6.33-4.16,10.31-4.04,2.93.09,5.77,1.07,8.53,2.96,2.76,1.89,4.96,3.88,6.6,5.98,1.64,2.1,3.45,4.71,5.43,7.86,9.78-8.19,19.56-16.45,29.34-24.82-14.1-20.1-30.49-30.01-49.15-30.3-14.61-.22-27.04,4.93-37.27,15.28-10.24,10.35-15.35,22.81-15.34,37.48,0,11.33,2.83,21.27,8.46,29.92,5.63,8.65,15.41,18.58,29.33,30.04,8.99,7.26,15.59,13.62,19.78,18.98,4.19,5.35,6.29,10.56,6.29,15.55,0,4.91-1.57,8.95-4.72,12.13-3.15,3.18-6.97,4.58-11.46,4.25-4.06-.3-8.19-2.33-12.38-6.04-4.2-3.72-8.03-9.01-11.49-15.88-10.11,8.57-20.22,17.11-30.33,25.63,7.45,10.42,15.86,18.56,25.25,24.42Z"/>
  </g>
  <g id="Nuts-2" data-name="Nuts">
    <g>
      <path d="M211.69,452.12c-.44,0-.87-.16-1.2-.46-.38-.34-.6-.83-.6-1.34l.05-202.83c0-.98.78-1.78,1.76-1.8,10.8-.22,21.59-.42,32.39-.61h.03c.71,0,1.36.42,1.65,1.08,13.82,31.48,28.07,63.45,43.44,97.49l.08-97.5c0-.98.79-1.78,1.78-1.8,11.89-.16,23.78-.31,35.68-.44h.02c.47,0,.93.19,1.27.52.34.34.53.8.53,1.28l-.16,194.55c0,.95-.74,1.74-1.69,1.79-10.49.64-21.09,1.36-31.51,2.15-.05,0-.09,0-.14,0-.69,0-1.33-.4-1.63-1.04-15.67-33.42-30.03-64.42-43.79-94.52l-.06,97.85c0,.93-.7,1.7-1.63,1.79-11.94,1.16-24.07,2.44-36.07,3.81-.07,0-.14.01-.2.01Z" fill="#fad749"/>
      <path d="M326.78,245.72c-.05,64.85-.11,129.7-.16,194.55-10.52.64-21.03,1.36-31.54,2.15-15.74-33.58-31.48-67.52-47.22-102.03-.02,35.37-.05,70.74-.07,106.11-12.04,1.17-24.08,2.44-36.1,3.82.02-67.61.04-135.22.05-202.83,10.79-.22,21.59-.42,32.39-.61,15.63,35.62,31.26,70.58,46.88,105.1.03-35.28.06-70.55.09-105.83,11.89-.16,23.78-.31,35.67-.44M326.78,242.12s-.03,0-.04,0c-11.77.13-23.78.27-35.68.44-1.97.03-3.55,1.63-3.55,3.6l-.06,70.59-.02,18.56c-14.07-31.21-27.22-60.75-40-89.87-.57-1.31-1.87-2.15-3.3-2.15-.02,0-.04,0-.06,0-10.76.19-21.66.39-32.4.61-1.96.04-3.53,1.64-3.53,3.6l-.05,202.83c0,1.03.44,2,1.2,2.69.66.59,1.52.91,2.4.91.14,0,.27,0,.41-.02,11.94-1.36,24.07-2.64,36.04-3.81,1.84-.18,3.25-1.73,3.25-3.58l.03-53.06.02-36.55c12.7,27.72,25.98,56.35,40.37,87.04.6,1.27,1.87,2.07,3.26,2.07.09,0,.18,0,.27-.01,10.45-.79,21.04-1.51,31.49-2.15,1.9-.12,3.38-1.69,3.38-3.59l.11-129.69.05-64.86c0-.96-.38-1.88-1.07-2.56-.67-.67-1.58-1.04-2.53-1.04h0Z" fill="#f4e192"/>
    </g>
    <g>
      <path d="M418.03,439.52c-16.12,0-29.6-5.37-40.05-15.96-10.93-11.06-16.47-25.56-16.46-43.07l.1-134.98c0-.99.8-1.79,1.78-1.8,12.59-.11,25.17-.21,37.76-.28h.01c.48,0,.93.19,1.27.52.34.34.53.8.53,1.28l-.08,135.62c0,6.03,1.6,10.68,4.9,14.2,3.15,3.37,6.96,5.01,11.65,5.01h.43c4.91-.11,8.9-1.93,12.22-5.56,3.36-3.67,4.99-8.38,4.99-14.38l.04-135.06c0-.99.8-1.8,1.79-1.8,12.27-.04,24.53-.05,36.8-.05h.97c.99,0,1.8.81,1.8,1.8v133.32c0,17.26-5.56,31.82-16.54,43.29-10.94,11.43-25.07,17.45-42,17.88-.65.02-1.29.02-1.93.02Z" fill="#fad749"/>
      <path d="M475.71,245c.33,0,.66,0,.99,0,0,44.44,0,88.88,0,133.32,0,16.89-5.34,30.87-16.04,42.04-10.69,11.18-24.28,16.91-40.74,17.33-.63.02-1.26.02-1.89.02-15.62,0-28.54-5.06-38.77-15.43-10.64-10.77-15.95-24.7-15.94-41.81.03-44.99.07-89.98.1-134.98,12.58-.11,25.17-.21,37.75-.28-.03,45.21-.05,90.41-.08,135.62,0,6.45,1.79,11.59,5.38,15.43,3.48,3.73,7.81,5.58,12.97,5.58.16,0,.31,0,.47,0,5.37-.12,9.87-2.16,13.51-6.14,3.64-3.98,5.46-9.17,5.46-15.59.01-45.02.03-90.04.04-135.06,12.26-.04,24.51-.05,36.77-.05M475.71,241.4c-12.21,0-24.58.02-36.78.05-1.98,0-3.59,1.62-3.59,3.6l-.02,67.53-.02,67.53c0,5.54-1.48,9.84-4.52,13.17-2.97,3.25-6.55,4.88-10.93,4.97-.13,0-.26,0-.4,0-4.16,0-7.55-1.45-10.34-4.44-2.97-3.18-4.42-7.42-4.41-12.97l.08-135.62c0-.96-.38-1.88-1.06-2.55-.67-.67-1.59-1.05-2.54-1.05,0,0-.01,0-.02,0-12.52.08-25.23.17-37.77.28-1.97.02-3.57,1.62-3.57,3.6l-.07,96.43-.03,38.55c-.01,18.01,5.7,32.93,16.98,44.34,10.81,10.95,24.71,16.5,41.33,16.5.66,0,1.31,0,1.98-.03,17.43-.45,31.98-6.65,43.25-18.44,11.3-11.81,17.04-26.8,17.04-44.53v-88.88s0-44.44,0-44.44c0-1.99-1.61-3.6-3.6-3.6h-.99Z" fill="#f4e192"/>
    </g>
    <g>
      <path d="M578.01,439.96c-12.53-.53-25.24-.96-37.77-1.28-.98-.03-1.75-.82-1.75-1.8l-.07-152.94c-11.22-.09-22.57-.16-33.77-.19-.99,0-1.79-.81-1.79-1.8v-36.94c0-.48.18-.94.52-1.27.34-.34.79-.53,1.27-.53h0c36.13.06,72.76.28,108.87.65.99,0,1.78.81,1.78,1.8l.03,37.53c0,.48-.19.95-.54,1.29-.34.33-.79.51-1.26.51h-.04c-11.18-.22-22.51-.41-33.72-.58l.11,153.74c0,.49-.2.96-.55,1.3-.34.32-.78.5-1.25.5-.03,0-.05,0-.08,0Z" fill="#fad749"/>
      <path d="M504.64,245.01c36.29.06,72.58.28,108.86.65.01,12.51.02,25.02.03,37.53-11.85-.23-23.7-.43-35.55-.6.04,51.86.07,103.71.11,155.57-12.6-.54-25.2-.96-37.8-1.28-.02-51.57-.05-103.15-.07-154.72-11.85-.1-23.71-.17-35.56-.2,0-12.31,0-24.63,0-36.94M504.64,241.41c-.95,0-1.87.38-2.54,1.05-.68.68-1.06,1.59-1.06,2.55v14.78s0,22.17,0,22.17c0,1.98,1.61,3.59,3.59,3.6,10.6.03,21.34.09,31.98.18l.05,112.5.02,38.65c0,1.95,1.56,3.55,3.51,3.6,12.53.32,25.22.75,37.74,1.28.05,0,.1,0,.15,0,.93,0,1.82-.36,2.49-1,.71-.68,1.11-1.62,1.11-2.6l-.1-151.92c10.62.16,21.32.34,31.88.55.02,0,.05,0,.07,0,.94,0,1.85-.37,2.52-1.03.69-.68,1.08-1.6,1.08-2.57l-.02-21.9v-15.64c-.01-1.97-1.6-3.58-3.58-3.6-36.13-.37-72.76-.59-108.89-.65,0,0,0,0,0,0h0Z" fill="#f4e192"/>
    </g>
    <g>
      <path d="M689.1,448.82c-1.73,0-3.51-.08-5.31-.24-10.14-.9-20.16-4.4-29.77-10.41-9.55-5.96-18.22-14.34-25.76-24.9-.54-.76-.41-1.82.3-2.42,10.11-8.52,20.22-17.06,30.33-25.63.33-.28.74-.43,1.16-.43.12,0,.24.01.36.04.54.11,1,.46,1.25.95,3.34,6.63,7.07,11.8,11.07,15.34,3.88,3.44,7.69,5.33,11.32,5.6.39.03.77.04,1.15.04,3.48,0,6.39-1.23,8.91-3.76,2.83-2.85,4.2-6.4,4.2-10.86,0-4.58-1.99-9.44-5.91-14.45-4.17-5.32-10.73-11.61-19.49-18.69-14.34-11.8-24.06-21.76-29.71-30.46-5.79-8.9-8.74-19.3-8.75-30.9-.01-15.05,5.32-28.09,15.86-38.74,10.39-10.5,23.06-15.82,37.67-15.82.3,0,.61,0,.92,0,19.32.29,36.34,10.74,50.6,31.06.53.76.4,1.8-.3,2.4-9.32,7.97-19.19,16.32-29.35,24.83-.33.27-.74.42-1.16.42-.09,0-.19,0-.28-.02-.51-.08-.97-.38-1.24-.82-1.94-3.07-3.74-5.67-5.33-7.71-1.52-1.94-3.6-3.83-6.19-5.61-2.46-1.68-5-2.57-7.57-2.65-.14,0-.28,0-.42,0-3.32,0-6.12,1.16-8.58,3.54-2.55,2.48-3.79,5.63-3.79,9.65,0,3.72,1.46,7.3,4.46,10.93,3.11,3.77,8.81,9.01,17.46,16.04,15.73,12.97,26.95,24.62,33.37,34.65,6.34,9.9,9.55,21.44,9.55,34.29,0,16.55-5.57,30.28-16.58,40.8-9.65,9.24-21.24,13.92-34.43,13.92h0Z" fill="#fad749"/>
      <path d="M687.97,244.89c.3,0,.59,0,.89,0,18.66.28,35.05,10.2,49.15,30.3-9.78,8.36-19.56,16.63-29.34,24.82-1.98-3.14-3.8-5.76-5.43-7.86-1.64-2.1-3.84-4.09-6.6-5.98-2.76-1.89-5.61-2.88-8.53-2.96-.16,0-.32,0-.47,0-3.78,0-7.06,1.36-9.83,4.05-2.9,2.81-4.34,6.45-4.34,10.94,0,4.12,1.63,8.14,4.87,12.07,3.24,3.93,9.15,9.33,17.71,16.29,15.82,13.04,26.81,24.57,32.99,34.22,6.18,9.66,9.27,20.81,9.27,33.33,0,16.07-5.34,29.28-16.02,39.49-9.43,9.03-20.49,13.42-33.18,13.42-1.69,0-3.4-.08-5.15-.23-9.93-.88-19.59-4.28-28.98-10.14-9.39-5.86-17.8-14-25.25-24.42,10.11-8.52,20.22-17.06,30.33-25.63,3.46,6.87,7.29,12.16,11.49,15.88,4.19,3.72,8.32,5.74,12.38,6.04.43.03.86.05,1.28.05,3.94,0,7.34-1.42,10.19-4.29,3.15-3.18,4.72-7.22,4.72-12.13,0-5-2.1-10.2-6.29-15.55-4.19-5.35-10.79-11.71-19.78-18.98-13.93-11.46-23.71-21.39-29.33-30.04-5.63-8.65-8.45-18.6-8.46-29.92-.01-14.67,5.1-27.12,15.34-37.48,10.03-10.14,22.16-15.29,36.38-15.29M687.97,241.29h0c-15.1,0-28.21,5.5-38.94,16.35-10.88,11-16.39,24.47-16.38,40.01.01,11.96,3.05,22.68,9.04,31.88,5.76,8.85,15.59,18.95,30.06,30.86,8.69,7.02,15.15,13.21,19.23,18.42,3.67,4.68,5.53,9.17,5.53,13.34,0,3.96-1.2,7.09-3.68,9.59-2.16,2.17-4.65,3.23-7.63,3.23-.33,0-.67-.01-1.01-.04-3.23-.24-6.68-1.97-10.26-5.15-3.83-3.4-7.42-8.38-10.66-14.81-.5-.98-1.42-1.69-2.5-1.91-.24-.05-.48-.07-.72-.07-.85,0-1.67.3-2.33.85-8.77,7.44-18.41,15.58-30.32,25.62-1.44,1.21-1.7,3.32-.61,4.85,7.68,10.75,16.52,19.29,26.27,25.38,9.86,6.16,20.14,9.75,30.57,10.67,1.84.16,3.68.25,5.47.25,13.67,0,25.68-4.85,35.67-14.42,11.37-10.87,17.13-25.04,17.13-42.1,0-13.2-3.31-25.07-9.84-35.26-6.52-10.18-17.86-21.97-33.73-35.06-8.57-6.97-14.19-12.14-17.22-15.81-2.72-3.3-4.05-6.5-4.05-9.79,0-3.5,1.06-6.24,3.24-8.35,2.11-2.04,4.5-3.03,7.33-3.03.12,0,.24,0,.37,0,2.25.07,4.41.83,6.61,2.33,2.44,1.67,4.39,3.43,5.79,5.23,1.57,2.01,3.33,4.55,5.23,7.56.55.88,1.46,1.47,2.49,1.63.19.03.37.04.56.04.84,0,1.66-.29,2.31-.84,10.1-8.46,19.98-16.82,29.37-24.84,1.41-1.21,1.67-3.29.61-4.8-14.61-20.82-32.12-31.53-52.05-31.83-.32,0-.63,0-.94,0h0Z" fill="#f4e192"/>
    </g>
  </g>
  <g id="Nuts-3" data-name="Nuts">
    <g>
      <path d="M326.78,245.83c-10.05.82-25.45,1.47-35.65,1.86,0,0,1.51-1.53,1.51-1.53.61,26.21.5,53.13-.33,79.37-.13,4.41-.23,8.82-.48,13.23-.21,4.41-.39,8.82-.7,13.23h-.22c-.04-26.39-.03-79.45.03-105.83-.04-.47,35.67-.38,35.83-.54,0,0,0,.22,0,.22h0Z" fill="#aa994f"/>
      <path d="M247.96,340.35c6.59,11.73,13.43,25.44,19.29,37.53,8.89,18.64,17.89,38.69,25.42,57.91,0,0,1.29,3.28,1.29,3.28l1.23,3.31c-11.94-24.57-36.22-77.03-47.22-102.02h0Z" fill="#aa994f"/>
      <path d="M244.13,246.99c-10.31.61-22.08,1.12-32.37,1.57,0,0,1.04-1.07,1.04-1.07.26,16.9.67,33.81.67,50.71.24,33.81.19,67.61-.4,101.42-.46,16.77-.25,34.36-1.5,50.71-.06-50.58-.06-152.28.02-202.83-.03-.43,32.39-.55,32.52-.72,0,0,0,.22,0,.22h0Z" fill="#aa994f"/>
    </g>
    <g>
      <path d="M401.18,245.33c-8.7.41-19.55.83-28.31,1.14,0,0-9.44.25-9.44.25l1.2-1.21c.56,28.83.78,61.72.55,90.47-.05,13.24-.22,32.16-.51,45.22-.13,7.42.95,14.84,3.29,21.88,2.35,7.05,6.31,13.56,11.37,19.13l-.15.15c-5.33-5.35-9.52-11.85-12.14-18.94-2.65-7.09-3.81-14.67-3.86-22.22l-.02-45.24.12-90.47c-.03-.46,37.75-.22,37.9-.39,0,0,0,.22,0,.22h0Z" fill="#aa994f"/>
      <path d="M439.04,245.05c1.03,21.64,1.54,46.69,1.65,68.36.15,11.36.14,34.21-.02,45.57-.11,6.62,0,16.3-.32,22.86-.55,12.68-11.18,23.03-24.15,20.34-3.84-.71-7.34-2.87-9.81-5.84,0,0,.16-.15.16-.15,2.55,2.78,6.02,4.73,9.77,5.29,12.24,2.08,22.14-7.74,22.36-19.73.25-30.52-.36-105.63.36-136.71h0Z" fill="#aa994f"/>
    </g>
    <g>
      <path d="M613.5,245.77c-26.93,1.39-54.69,1.59-81.65,1.31-9.07-.09-18.14-.23-27.21-.54,0,0,1.53-1.53,1.53-1.53-.15,6.11-.58,21.8-.93,27.71,0,0-.21,4.62-.21,4.62l-.28,4.62s-.22,0-.22,0c.16-.17-.37-37.14.1-37.11,26.98.34,82.32.07,108.86.92h0Z" fill="#aa994f"/>
      <path d="M540.32,282.16c1.05,18.36,1.57,39.63,1.7,58.02.32,28.1.05,58.98-1.15,87.03,0,0-.21,4.84-.21,4.84l-.27,4.84c-.53-37.86-.57-116.87-.07-154.72h0Z" fill="#aa994f"/>
    </g>
    <g>
      <path d="M728.95,360.84c-8.62-9.94-18.33-18.89-28.04-27.75-4.84-4.46-9.95-8.86-14.35-13.79-.67-.72-2-2.27-2.61-3.05,0,0,.15-.16.15-.16,3.88,3.61,7.95,7.01,12.06,10.34,8.2,6.72,16.13,13.82,23.22,21.72,3.55,3.94,6.88,8.1,9.75,12.56,0,0-.18.12-.18.12h0Z" fill="#aa994f"/>
      <path d="M660.13,386.68c-5.1,6.65-11.34,12.14-17.84,17.34-3.98,3.05-7.99,5.95-12.49,8.29,0,0-.14-.17-.14-.17,7.49-6.47,22.71-19.32,30.33-25.63,0,0,.14.16.14.16h0Z" fill="#aa994f"/>
      <path d="M693.9,376.53c4.27,3.56,7.52,8.87,8.03,14.6.87,7.88-4.28,16.47-12.39,17.85-1.92.31-3.85.18-5.62-.34l.02-.22c3.56.28,7.21-.72,9.97-3.02,5.74-4.48,7.3-12.69,5.01-19.4-1.1-3.4-2.99-6.51-5.17-9.34l.17-.13h0Z" fill="#aa994f"/>
      <path d="M722.83,258.34c-19.55-15.74-49.61-16.42-67.9,1.3-14.35,12.53-19.77,31.76-16.45,50.26.77,4.61,2.15,9.15,4.16,13.39.64,1.44,1.38,2.83,2.15,4.22l-.18.12c-7.03-10.65-9.49-23.84-8.17-36.43,1.8-19.06,15.35-36.3,33.11-43.2,11.88-4.48,25.46-4.38,37.26.28,5.91,2.34,11.33,5.79,16.16,9.89l-.14.16h0Z" fill="#aa994f"/>
    </g>
  </g>
  <path d="M789.88,263.1c-.97-2.53-2.31-4.74-4.02-6.61-1.71-1.87-3.71-3.33-5.99-4.37-2.28-1.05-4.69-1.57-7.21-1.57-2.51,0-4.89.51-7.15,1.55-2.26,1.03-4.26,2.5-6,4.4-1.74,1.9-3.1,4.11-4.07,6.63-.97,2.51-1.45,5.18-1.45,7.98,0,3.67.83,7.01,2.5,10.01,1.67,2.99,3.94,5.27,6.81,6.9,2.88,1.64,6,2.43,9.36,2.44,3.36.01,6.49-.76,9.36-2.38,2.88-1.62,5.15-3.88,6.81-6.88,1.67-2.99,2.5-6.34,2.5-10.02,0-2.84-.48-5.54-1.45-8.07ZM785.72,279.01c-1.33,2.42-3.15,4.27-5.46,5.61-2.31,1.34-4.84,1.98-7.6,1.97-2.74,0-5.27-.67-7.58-2.03-2.31-1.36-4.14-3.22-5.49-5.64-1.35-2.42-2.03-5.1-2.02-8.03,0-2.23.4-4.37,1.19-6.4.79-2.03,1.88-3.81,3.28-5.31,1.39-1.51,3.02-2.67,4.87-3.5,1.85-.83,3.77-1.24,5.76-1.24,2.01,0,3.94.42,5.8,1.26,1.86.84,3.48,2.02,4.85,3.53,1.38,1.51,2.46,3.27,3.24,5.28.78,2,1.17,4.16,1.17,6.44,0,2.96-.67,5.65-2,8.07ZM779.56,277.67c-.87-1.76-1.63-3.05-2.29-3.88-.66-.83-1.45-1.48-2.36-1.96,1.37-.26,2.61-.82,3.73-1.69,1.12-.86,1.67-2.25,1.67-4.16,0-2.12-.65-3.68-1.95-4.67-1.3-.99-3.05-1.49-5.27-1.5-2.97,0-5.94.02-8.9.07,0,7.16,0,14.32,0,21.48,1.65-.07,3.3-.12,4.94-.14,0-2.84,0-5.69,0-8.53.72,0,1.31.11,1.76.35.86.54,2.42,3.25,4.68,8.19,1.95.03,3.9.1,5.85.19-.62-1.26-1.24-2.51-1.86-3.76ZM774.21,268.25c-.66.41-1.64.6-2.92.61-.72,0-1.44,0-2.15.01,0-1.78,0-3.56,0-5.34.79,0,1.58-.01,2.37-.01,1.21,0,2.12.24,2.75.73.63.48.94,1.14.94,1.96,0,.96-.33,1.64-.99,2.04Z"/>
  <path d="M788.88,261.1c-.97-2.53-2.31-4.74-4.02-6.61-1.71-1.87-3.71-3.33-5.99-4.37-2.28-1.05-4.69-1.57-7.21-1.57-2.51,0-4.89.51-7.15,1.55-2.26,1.03-4.26,2.5-6,4.4-1.74,1.9-3.1,4.11-4.07,6.63-.97,2.51-1.45,5.18-1.45,7.98,0,3.67.83,7.01,2.5,10.01,1.67,2.99,3.94,5.27,6.81,6.9,2.88,1.64,6,2.43,9.36,2.44,3.36.01,6.49-.76,9.36-2.38,2.88-1.62,5.15-3.88,6.81-6.88,1.67-2.99,2.5-6.34,2.5-10.02,0-2.84-.48-5.54-1.45-8.07ZM784.72,277.01c-1.33,2.42-3.15,4.27-5.46,5.61-2.31,1.34-4.84,1.98-7.6,1.97-2.74,0-5.27-.67-7.58-2.03-2.31-1.36-4.14-3.22-5.49-5.64-1.35-2.42-2.03-5.1-2.02-8.03,0-2.23.4-4.37,1.19-6.4.79-2.03,1.88-3.81,3.28-5.31,1.39-1.51,3.02-2.67,4.87-3.5,1.85-.83,3.77-1.24,5.76-1.24,2.01,0,3.94.42,5.8,1.26,1.86.84,3.48,2.02,4.85,3.53,1.38,1.51,2.46,3.27,3.24,5.28.78,2,1.17,4.16,1.17,6.44,0,2.96-.67,5.65-2,8.07ZM778.56,275.67c-.87-1.76-1.63-3.05-2.29-3.88-.66-.83-1.45-1.48-2.36-1.96,1.37-.26,2.61-.82,3.73-1.69,1.12-.86,1.67-2.25,1.67-4.16,0-2.12-.65-3.68-1.95-4.67-1.3-.99-3.05-1.49-5.27-1.5-2.97,0-5.94.02-8.9.07,0,7.16,0,14.32,0,21.48,1.65-.07,3.3-.12,4.94-.14,0-2.84,0-5.69,0-8.53.72,0,1.31.11,1.76.35.86.54,2.42,3.25,4.68,8.19,1.95.03,3.9.1,5.85.19-.62-1.26-1.24-2.51-1.86-3.76ZM773.21,266.25c-.66.41-1.64.6-2.92.61-.72,0-1.44,0-2.15.01,0-1.78,0-3.56,0-5.34.79,0,1.58-.01,2.37-.01,1.21,0,2.12.24,2.75.73.63.48.94,1.14.94,1.96,0,.96-.33,1.64-.99,2.04Z" fill="#fad749"/>
</svg>