<?xml version="1.0" encoding="UTF-8"?>
<svg id="phn-g" xmlns="http://www.w3.org/2000/svg" viewBox="0 0 998.28 995.53">
  <path id="phone" d="M793.88,995.53c-24.1,0-77.1-3.36-149.71-27.19-55.74-18.3-112.34-45.13-168.24-79.76-69.09-42.81-137.4-97.78-203.01-163.39-114.88-114.87-190.69-213.9-231.77-302.74-19.23-41.58-31.4-81.53-37.21-122.13-5.07-35.43-5.25-71.67-.55-110.79,2.36-20.63,7.44-40.97,15.52-62.18l.12-.31c14.57-37.16,34.61-62.69,48.86-77.56l.41-.42,27.67-27.94C109.35,7.71,127.63.01,146.14,0h.05c17.59,0,33.98,6.71,46.16,18.89l158.52,158.52c25.92,25.99,24.97,69.21-2.09,96.38l-87.65,87.56c3.91,6.78,8.3,14.6,13.88,24.77,28.45,51.32,67.36,121.47,141.58,195.62,74.07,74.11,144.1,112.96,195.23,141.32,8.68,4.8,17.15,9.51,25.14,14.13l87.54-87.56c27.24-27.13,70.47-28.09,96.43-2.2l158.49,158.53c25.95,26.01,24.97,69.22-2.16,96.35l-20.45,20.41-7.89,7.58c-14.79,14.3-40.24,34.39-77.51,48.97l-.18.07c-20.77,8-41.12,13.1-62.21,15.61l-.79.09c-.69.07-5.63.51-14.36.51ZM85.15,152.79c-5.92,15.57-9.61,30.25-11.28,44.89l-.03.23c-8.34,69.25,1.44,129.32,31.71,194.77,37.51,81.13,108.67,173.49,217.54,282.35,60.9,60.89,123.99,111.89,187.53,151.59,50.63,31.62,101.65,56.18,151.67,73,81.66,27.45,134.23,25.09,139.1,24.79,14.87-1.83,29.36-5.51,44.27-11.24,26.29-10.3,43.86-24.11,53.98-33.89l.08-.07,7.7-7.4,18.78-18.75-152.36-152.4-125.61,125.65-40.37-23.93c-9.17-5.46-19.58-11.26-30.34-17.21l-.1-.06c-54.81-30.4-129.87-72.04-210.97-153.19-81.28-81.21-122.99-156.42-153.44-211.34l-.11-.2c-7.28-13.25-12.34-22.2-16.93-29.94l-23.95-40.32,125.68-125.55L145.29,72.16l-26.34,26.6c-9.79,10.26-23.52,27.91-33.79,54.03ZM927.41,851.72h0Z" fill="#555" stroke-width="0"/>
</svg>