<?xml version="1.0" encoding="UTF-8"?>
<svg id="cross" xmlns="http://www.w3.org/2000/svg" viewBox="0 0 697.34 697.34">
  <path d="M348.67,697.34c-28.33,0-51.3-22.97-51.3-51.3V51.3c0-28.33,22.97-51.3,51.3-51.3s51.3,22.97,51.3,51.3v594.74c0,28.33-22.97,51.3-51.3,51.3Z" fill="#5e249d"/>
  <path d="M646.04,399.97h-297.37c-28.33,0-51.3-22.97-51.3-51.3s22.97-51.3,51.3-51.3h297.37c28.33,0,51.3,22.97,51.3,51.3s-22.97,51.3-51.3,51.3Z" fill="#db095b"/>
  <path d="M0,348.67c0-28.33,22.97-51.3,51.3-51.3h297.37c28.33,0,51.3,22.97,51.3,51.3s-22.97,51.3-51.3,51.3H51.3c-28.33,0-51.3-22.97-51.3-51.3Z" fill="#a4ce4e"/>
  <path d="M348.67,399.97s0,0,0,0h-51.29v246.08c0,28.33,22.97,51.3,51.3,51.3s51.3-22.97,51.3-51.3v-297.37c0,28.33-22.97,51.3-51.3,51.3Z" fill="#5e249d"/>
  <path d="M348.67,297.37h51.3V51.3c0-28.33-22.97-51.3-51.3-51.3s-51.3,22.97-51.3,51.3v297.37c0-28.33,22.97-51.3,51.3-51.3Z" fill="#0090da"/>
  <path d="M348.67,399.97c-.83,0-1.7-.01-2.53-.06s-1.68-.1-2.51-.19c-.83-.09-1.68-.19-2.5-.31-.83-.13-1.66-.27-2.48-.45-.82-.16-1.65-.34-2.45-.55-.8-.21-1.62-.43-2.42-.67-.79-.25-1.59-.52-2.38-.79-.79-.28-1.58-.6-2.35-.91-.76-.33-1.53-.67-2.29-1.03-.76-.36-1.5-.73-2.24-1.12-.73-.4-1.47-.82-2.19-1.23-.71-.43-1.43-.89-2.13-1.35-.7-.46-1.4-.94-2.07-1.44-.67-.49-1.34-1.01-1.99-1.55-.64-.52-1.29-1.09-1.9-1.64-.62-.56-1.25-1.16-1.84-1.74-.58-.59-1.17-1.22-1.74-1.84-.55-.61-1.12-1.26-1.64-1.9-.54-.65-1.06-1.32-1.55-1.99-.51-.67-.98-1.37-1.44-2.07-.46-.7-.92-1.41-1.34-2.13-.43-.71-.85-1.46-1.23-2.19-.4-.73-.77-1.49-1.13-2.24-.36-.76-.7-1.53-1.03-2.29-.31-.77-.61-1.56-.89-2.35-.28-.79-.55-1.59-.8-2.38-.24-.8-.46-1.62-.67-2.42s-.39-1.63-.55-2.45c-.16-.82-.31-1.65-.45-2.47-.12-.83-.22-1.68-.31-2.51-.07-.83-.15-1.68-.19-2.51-.03-.83-.06-1.7-.06-2.53s.03-1.7.06-2.53c.04-.83.12-1.68.19-2.51.09-.83.19-1.68.31-2.5.13-.83.28-1.66.45-2.48.16-.82.34-1.65.55-2.45s.43-1.62.67-2.42c.25-.79.52-1.59.8-2.38.28-.79.58-1.58.89-2.35.33-.76.67-1.53,1.03-2.29.36-.76.73-1.5,1.13-2.24.39-.73.8-1.47,1.23-2.19.42-.71.88-1.43,1.34-2.13.46-.7.94-1.4,1.44-2.07.49-.67,1.01-1.34,1.55-1.99.52-.64,1.09-1.29,1.64-1.9.57-.62,1.16-1.25,1.74-1.84.6-.58,1.22-1.17,1.84-1.74.61-.55,1.26-1.12,1.9-1.64.65-.54,1.32-1.06,1.99-1.55.67-.51,1.37-.98,2.07-1.44.7-.46,1.41-.92,2.13-1.34.71-.43,1.46-.85,2.19-1.23.74-.4,1.49-.77,2.24-1.13.76-.36,1.53-.7,2.29-1.03.77-.31,1.56-.61,2.35-.89.79-.28,1.59-.55,2.38-.8.8-.24,1.62-.46,2.42-.67s1.64-.39,2.45-.55c.82-.16,1.65-.31,2.48-.45.82-.12,1.67-.22,2.5-.31.83-.07,1.68-.15,2.51-.19,1.68-.07,3.38-.07,5.06,0,.83.04,1.68.12,2.51.19.83.09,1.68.19,2.51.31.82.13,1.65.28,2.47.45.82.16,1.65.34,2.45.55s1.62.43,2.42.67c.79.25,1.59.52,2.38.8.79.28,1.58.58,2.35.89.76.33,1.53.67,2.29,1.03.76.36,1.52.73,2.24,1.13.73.39,1.47.8,2.19,1.23.71.42,1.43.88,2.13,1.34.7.46,1.4.94,2.07,1.44.67.49,1.34,1.01,1.99,1.55.64.52,1.29,1.09,1.9,1.64.62.57,1.25,1.16,1.84,1.74.58.6,1.17,1.22,1.74,1.84.55.61,1.12,1.26,1.64,1.9.54.65,1.06,1.32,1.55,1.99.51.67.98,1.37,1.44,2.07.46.7.92,1.41,1.35,2.13.42.71.83,1.46,1.23,2.19.39.74.76,1.49,1.12,2.24.36.76.7,1.53,1.03,2.29.31.77.63,1.56.91,2.35.27.79.54,1.59.79,2.38.24.8.46,1.62.67,2.42.21.8.39,1.64.55,2.45.18.82.31,1.65.45,2.48.12.82.22,1.67.31,2.5.09.83.15,1.68.19,2.51s.06,1.7.06,2.53-.01,1.69-.06,2.53c-.05.83-.1,1.68-.19,2.51-.09.83-.19,1.68-.31,2.51-.13.82-.27,1.65-.45,2.47-.16.82-.34,1.65-.55,2.45-.21.8-.43,1.62-.67,2.42-.25.79-.52,1.59-.79,2.38-.28.79-.6,1.58-.91,2.35-.33.76-.67,1.53-1.03,2.29-.36.76-.73,1.52-1.12,2.24-.4.73-.82,1.47-1.23,2.19-.43.71-.89,1.43-1.35,2.13-.46.7-.94,1.4-1.44,2.07-.49.67-1.01,1.34-1.55,1.99-.52.64-1.09,1.29-1.64,1.9-.56.62-1.16,1.25-1.74,1.84-.59.58-1.22,1.17-1.84,1.74-.61.55-1.26,1.12-1.9,1.64-.65.54-1.32,1.06-1.99,1.55-.67.51-1.37.98-2.07,1.44-.7.46-1.41.92-2.13,1.35-.71.42-1.46.83-2.19,1.23-.73.39-1.49.76-2.24,1.12-.76.36-1.53.7-2.29,1.03-.77.31-1.56.63-2.35.91-.79.27-1.59.54-2.38.79-.8.24-1.62.46-2.42.67-.8.21-1.63.39-2.45.55-.82.18-1.65.31-2.47.45-.83.12-1.68.22-2.51.31-.83.09-1.68.15-2.51.19-.83.05-1.7.06-2.53.06Z" fill="#007abc"/>
</svg>