<?xml version="1.0" encoding="UTF-8"?>
<svg id="rating-cn" xmlns="http://www.w3.org/2000/svg" viewBox="0 0 1000 1000">
  <g id="cl-cn">
    <path d="M500,990c-66.15,0-130.32-12.95-190.73-38.5-58.35-24.68-110.75-60.01-155.76-105.01s-80.34-97.41-105.02-155.75c-25.55-60.4-38.5-124.57-38.5-190.73s12.95-130.32,38.5-190.73c24.68-58.35,60.01-110.75,105.02-155.76s97.41-80.34,155.76-105.02c60.4-25.55,124.57-38.5,190.73-38.5s130.32,12.95,190.73,38.5c58.35,24.68,110.75,60.01,155.75,105.02s80.34,97.41,105.01,155.76c25.55,60.4,38.5,124.57,38.5,190.73s-12.95,130.32-38.5,190.73c-24.68,58.35-60.01,110.75-105.01,155.75s-97.41,80.34-155.75,105.01c-60.4,25.55-124.57,38.5-190.73,38.5Z" fill="#fff8de"/>
    <path d="M500,20c64.81,0,127.67,12.69,186.83,37.71,57.16,24.17,108.49,58.79,152.58,102.88,44.09,44.09,78.7,95.42,102.88,152.58,25.02,59.16,37.71,122.02,37.71,186.83s-12.69,127.67-37.71,186.83c-24.17,57.16-58.79,108.49-102.88,152.58-44.09,44.09-95.42,78.7-152.58,102.88-59.16,25.02-122.02,37.71-186.83,37.71s-127.67-12.69-186.83-37.71c-57.16-24.17-108.49-58.79-152.58-102.88-44.09-44.09-78.7-95.42-102.88-152.58-25.02-59.16-37.71-122.02-37.71-186.83s12.69-127.67,37.71-186.83c24.17-57.16,58.79-108.49,102.88-152.58,44.09-44.09,95.42-78.7,152.58-102.88,59.16-25.02,122.02-37.71,186.83-37.71M500,0C223.86,0,0,223.86,0,500s223.86,500,500,500,500-223.86,500-500S776.14,0,500,0h0Z" fill="#f7e9c4"/>
  </g>
  <polygon id="st-icon" points="500 249.2 562.25 440.79 763.7 440.79 600.73 559.21 662.98 750.8 500 632.39 337.02 750.8 399.27 559.21 236.3 440.79 437.75 440.79 500 249.2" fill="#ffcb66"/>
</svg>