<?xml version="1.0" encoding="UTF-8"?>
<svg id="serv-g" xmlns="http://www.w3.org/2000/svg" viewBox="0 0 923.05 961.19">
  <g>
    <path d="M242.18,296.35c21.99,0,40.03-16.54,41.96-38.47l.44-5.04c.03-2.53.15-5.06.38-7.59l16.08-184.12h-67.65l-33.25,190.49c-.68,10.74,2.78,21.36,9.79,29.71,8.02,9.55,19.78,15.02,32.25,15.02Z" fill="none"/>
    <path d="M387.81,296.35h1.1c22.33,0,40.65-17.46,42.03-39.45-.02-.89-.03-1.78-.03-2.67V61.13h-68.23l-16.96,194.31c.27,10.12,4.1,19.66,11.07,27.26,8.06,8.8,19.07,13.65,31.03,13.65Z" fill="none"/>
    <path d="M135.72,265.29l3.78-21.63c.25-2.4.58-4.81,1-7.21l30.61-175.32h-31.41c-6.95,0-13.16,4.41-15.45,10.97l-60.9,174.38c-4.05,11.61-2.29,24.03,4.84,34.06,7.12,10.05,18.27,15.8,30.59,15.8,18.26,0,33.81-13.06,36.95-31.06Z" fill="none"/>
    <path d="M534.13,296.35h1.12c11.96,0,22.99-4.85,31.06-13.66,6.98-7.63,10.81-17.22,11.03-27.38l-16.95-194.18h-68.23v193.11c0,.89-.01,1.78-.03,2.66,1.38,21.98,19.69,39.45,42.01,39.45Z" fill="none"/>
    <path d="M638.45,252.47l.47,5.42c1.93,21.92,19.97,38.46,41.96,38.46,12.46,0,24.2-5.47,32.22-15.01,7.02-8.36,10.49-18.97,9.82-29.7l-33.28-190.5h-67.63l16.06,184.12c.21,2.41.33,4.82.37,7.22Z" fill="none"/>
    <path d="M798.83,72.09c-2.29-6.56-8.5-10.96-15.45-10.96h-31.41l30.61,175.35c.41,2.37.73,4.74.98,7.1l3.79,21.71c3.15,17.99,18.69,31.05,36.95,31.05,12.31,0,23.46-5.76,30.59-15.79,7.12-10.04,8.88-22.48,4.83-34.1l-60.9-174.37Z" fill="none"/>
    <path d="M114.96,870.77c0,16.15,13.14,29.29,29.29,29.29h625.09c16.15,0,29.29-13.14,29.29-29.29v-117.46H114.96v117.46Z" fill="none"/>
    <path d="M680.89,357.47c-28.5,0-54.28-11.32-72.96-29.91-19.27,19.07-45.48,29.91-72.68,29.91h-1.12c-28.28,0-53.94-11.44-72.6-29.93-18.67,18.49-44.33,29.93-72.62,29.93h-1.1c-27.21,0-53.42-10.85-72.67-29.92-18.68,18.6-44.46,29.92-72.96,29.92s-53.39-10.79-72.64-29.89c-14.43,14.86-33.43,25.06-54.57,28.55v336.05h683.68v-338.09c-17.34-4.65-32.87-13.91-45.11-26.52-19.25,19.1-45.24,29.89-72.64,29.89Z" fill="none"/>
    <path d="M917.42,226.32l-60.9-174.39c-10.84-31.06-40.24-51.93-73.14-51.93H139.69c-32.9,0-62.3,20.87-73.14,51.93L5.65,226.3c-10.69,30.53-6.07,63.2,12.68,89.62,9.46,13.33,21.62,23.79,35.5,30.88v523.96c0,49.86,40.56,90.42,90.42,90.42h625.09c49.86,0,90.42-40.56,90.42-90.42V351c17.82-6.8,33.39-18.78,44.93-35.04,18.75-26.38,23.39-59.05,12.72-89.65ZM689.66,61.13l33.28,190.5c.67,10.73-2.8,21.35-9.82,29.7-8.02,9.54-19.76,15.01-32.22,15.01-21.99,0-40.03-16.54-41.96-38.46l-.47-5.42c-.04-2.4-.16-4.81-.37-7.22l-16.06-184.12h67.63ZM492.16,254.23V61.13h68.23l16.95,194.18c-.22,10.16-4.05,19.75-11.03,27.38-8.07,8.81-19.1,13.66-31.06,13.66h-1.12c-22.32,0-40.63-17.47-42.01-39.45.02-.89.03-1.77.03-2.66ZM362.67,61.13h68.23v193.11c0,.89.01,1.78.03,2.67-1.38,21.98-19.7,39.45-42.03,39.45h-1.1c-11.96,0-22.98-4.84-31.03-13.65-6.97-7.6-10.8-17.15-11.07-27.26l16.96-194.31ZM200.13,251.61l33.25-190.49h67.65l-16.08,184.12c-.22,2.53-.34,5.07-.38,7.59l-.44,5.04c-1.93,21.93-19.97,38.47-41.96,38.47-12.47,0-24.22-5.48-32.25-15.02-7.01-8.35-10.47-18.96-9.79-29.71ZM68.17,280.54c-7.13-10.03-8.89-22.45-4.84-34.06l60.9-174.38c2.29-6.56,8.5-10.97,15.45-10.97h31.41l-30.61,175.32c-.42,2.4-.75,4.8-1,7.21l-3.78,21.63c-3.15,18-18.69,31.06-36.95,31.06-12.32,0-23.47-5.75-30.59-15.8ZM798.64,870.77c0,16.15-13.14,29.29-29.29,29.29H144.25c-16.15,0-29.29-13.14-29.29-29.29v-117.46h683.68v117.46ZM798.64,692.18H114.96v-336.05c21.14-3.49,40.14-13.69,54.57-28.55,19.25,19.1,45.24,29.89,72.64,29.89s54.28-11.32,72.96-29.92c19.26,19.07,45.46,29.92,72.67,29.92h1.1c28.29,0,53.95-11.44,72.62-29.93,18.66,18.49,44.32,29.93,72.6,29.93h1.12c27.2,0,53.41-10.84,72.68-29.91,18.68,18.6,44.46,29.91,72.96,29.91s53.39-10.8,72.64-29.89c12.24,12.61,27.77,21.87,45.11,26.52v338.09ZM854.89,280.56c-7.13,10.03-18.28,15.79-30.59,15.79-18.26,0-33.8-13.06-36.95-31.05l-3.79-21.71c-.25-2.37-.57-4.74-.98-7.1l-30.61-175.35h31.41c6.95,0,13.16,4.41,15.45,10.96l60.9,174.37c4.05,11.62,2.28,24.06-4.83,34.1Z" fill="#555"/>
  </g>
  <path d="M681.86,733.97c-6.56,0-12.2-4.94-12.96-11.61-2.65-23.6-15.18-42.26-34.39-51.18-20.95-9.78-48.99-12.27-71.52-14.28-20.72-1.84-35.69-3.18-44.93-9.27-3.5-2.39-11.38-7.74-11.38-43.02,0-3.85,1.71-7.5,4.64-9.99,1.68-1.43,41.87-36.66,41.87-104.07,0-25.62-15.9-92.17-88.46-92.59-73.07.42-88.97,66.97-88.97,92.59,0,67.41,40.18,102.64,41.92,104.11,2.88,2.47,4.59,6.14,4.59,9.95,0,35.27-7.88,40.63-11.25,42.93-9.21,6.19-24.19,7.53-44.9,9.36-22.5,2-50.52,4.49-71.41,14.26-19.37,8.99-31.99,27.66-34.62,51.19-.84,7.16-7.5,12.2-14.44,11.53-7.17-.8-12.32-7.27-11.53-14.44,3.62-32.34,22.15-59.24,49.55-71.98,25.05-11.7,55.6-14.42,80.14-16.6,10.56-.94,24.52-2.18,30.46-4.07.82-3.51,1.51-10.07,1.79-16.7-12.76-12.92-46.41-53.31-46.41-119.56,0-47.46,30.46-118.23,114.43-118.72,84.78.48,115.25,71.26,115.25,118.72,0,66.25-33.63,106.62-46.38,119.56.26,6.65.94,13.22,1.76,16.71,5.89,1.86,19.95,3.11,30.62,4.06,24.57,2.18,55.14,4.9,80.24,16.61,27.63,12.85,45.62,39.09,49.32,71.96.79,7.17-4.36,13.64-11.53,14.44-.48.05-1,.08-1.48.08Z" fill="#555" stroke="#555" stroke-miterlimit="10" stroke-width="18"/>
</svg>