<?xml version="1.0" encoding="UTF-8"?>
<svg id="services-g" xmlns="http://www.w3.org/2000/svg" viewBox="0 0 891.99 883.88">
  <path d="M330.59,132.24v-25.43c0-43.29,49.89-91.8,117.09-91.8s117.09,52.69,117.09,95.98v65.53" fill="none" stroke="#fff" stroke-miterlimit="10" stroke-width="30"/>
  <g id="inside-g">
    <path d="M198.33,255.28v-82.81c0-6.74,4.69-12.57,11.27-14.01l251.71-55.32c8.95-1.97,17.43,4.85,17.43,14.01v138.13H198.33" fill="none" stroke="#fff" stroke-miterlimit="10" stroke-width="30"/>
    <path d="M694.11,203.27h67.32c4.65,0,8.43,3.78,8.43,8.43v43.59h-75.74v-52.01h0Z" fill="none" stroke="#fff" stroke-miterlimit="10" stroke-width="30"/>
    <path d="M694.11,255.28h-215.37v-86.96s203.36,19.73,203.36,19.73c6.82.66,12.01,6.39,12.01,13.24v53.99Z" fill="none" stroke="#fff" stroke-miterlimit="10" stroke-width="30"/>
    <path d="M140.46,196.85h57.87v58.44h-64.96v-51.34c0-3.92,3.18-7.09,7.09-7.09Z" fill="none" stroke="#fff" stroke-miterlimit="10" stroke-width="30"/>
  </g>
  <g>
    <path d="M356.76,499.45c0-15.36-12.5-27.86-27.86-27.86s-27.86,12.5-27.86,27.86,12.5,27.86,27.86,27.86,27.86-12.5,27.86-27.86Z" fill="#fff"/>
    <path d="M891.08,801.38l-80.81-485.11c-5.84-35.07-38.95-60.99-77.91-60.99H159.63c-38.96,0-72.07,25.92-77.91,60.99L.91,801.38c-7.23,43.41,29.68,82.5,77.91,82.5h734.35c48.23,0,85.15-39.09,77.91-82.5ZM578.08,555.33v57.7c0,26.23-14.24,50.04-40.1,67.05-24.03,15.81-56.7,24.52-91.99,24.52s-67.91-9.55-92.41-26.9c-25.22-17.85-39.68-42.95-39.68-68.85v-53.52c-24.65-6.63-42.86-29.16-42.86-55.88,0-31.9,25.96-57.86,57.86-57.86s57.86,25.96,57.86,57.86c0,26.72-18.21,49.25-42.86,55.88v53.52c0,16.28,9.59,32.04,27.01,44.37,19.48,13.79,46.14,21.38,75.08,21.38s56.31-6.95,75.5-19.58c17.14-11.28,26.59-26.19,26.59-41.99v-57.7c-24.65-6.63-42.86-29.16-42.86-55.88,0-31.9,25.96-57.86,57.86-57.86s57.86,25.96,57.86,57.86c0,26.72-18.21,49.25-42.86,55.88Z" fill="#fff"/>
    <path d="M563.08,471.59c-15.36,0-27.86,12.5-27.86,27.86s12.5,27.86,27.86,27.86,27.86-12.5,27.86-27.86-12.5-27.86-27.86-27.86Z" fill="#fff"/>
  </g>
</svg>