<?xml version="1.0" encoding="UTF-8"?>
<svg id="set-g" xmlns="http://www.w3.org/2000/svg" viewBox="0 0 998.61 998.68">
  <g id="out-set">
    <path d="M549.94,69c9.09,0,16.87,6.54,18.43,15.49l16.87,96.46c1.63,9.33,8.2,17.03,17.14,20.14,11.75,4.09,23.17,8.85,34.23,14.24,3.65,1.78,7.58,2.66,11.5,2.66,5.37,0,10.7-1.65,15.21-4.9l79.13-56.91c3.29-2.37,7.12-3.53,10.93-3.53,4.82,0,9.6,1.85,13.22,5.47l72.8,72.76c6.42,6.43,7.3,16.54,2.08,23.97l-56.58,80.62c-5.45,7.77-6.23,17.87-2.1,26.41,5.29,10.91,9.96,22.16,13.99,33.72,3.15,9.05,10.98,15.66,20.44,17.21l96.68,15.81c9.04,1.49,15.67,9.3,15.68,18.45v102.91c.01,9.09-6.51,16.87-15.46,18.45l-97.06,17.01c-9.35,1.64-17.05,8.23-20.16,17.2-4,11.58-8.65,22.84-13.92,33.76-4.17,8.64-3.31,18.86,2.29,26.65l57.22,79.44c5.36,7.44,4.54,17.67-1.94,24.16l-72.76,72.83c-3.62,3.62-8.41,5.48-13.23,5.48-3.74,0-7.49-1.12-10.74-3.39l-80.37-56.39c-4.47-3.13-9.7-4.72-14.97-4.72-3.93,0-7.89.89-11.55,2.68-11.13,5.46-22.61,10.28-34.42,14.42-8.89,3.12-15.42,10.78-17.07,20.07l-17.11,96.59c-1.58,8.94-9.35,15.46-18.43,15.46h-102.94c-9.15,0-16.95-6.62-18.45-15.64l-15.92-95.84c-1.57-9.45-8.2-17.26-17.26-20.39-11.83-4.08-23.33-8.84-34.48-14.24-3.62-1.75-7.53-2.62-11.41-2.62-5.26,0-10.49,1.59-14.95,4.71l-79.83,55.88c-3.24,2.26-6.98,3.36-10.7,3.36-4.83,0-9.62-1.86-13.24-5.48l-72.76-72.8c-6.45-6.47-7.28-16.65-1.97-24.08l56.21-78.64c5.57-7.8,6.4-18.01,2.21-26.63-5.47-11.24-10.28-22.85-14.41-34.78-3.1-8.95-10.78-15.52-20.1-17.17l-95.53-16.92c-8.94-1.6-15.44-9.38-15.42-18.45v-102.91c0-9.14,6.6-16.94,15.6-18.45l95.27-15.85c9.42-1.57,17.22-8.16,20.36-17.18,4.16-11.95,9-23.55,14.49-34.79,4.16-8.53,3.4-18.64-2.04-26.42l-55.65-79.6c-5.22-7.44-4.34-17.55,2.08-23.97l72.8-72.72c3.62-3.61,8.4-5.46,13.21-5.46,3.79,0,7.59,1.15,10.87,3.48l79.03,56.45c4.5,3.21,9.81,4.85,15.15,4.85,3.87,0,7.77-.86,11.38-2.6,11.02-5.31,22.39-9.99,34.08-14.01,9.1-3.13,15.75-10.98,17.31-20.47l15.62-95.62c1.49-9.04,9.3-15.67,18.45-15.68h102.91s.01,0,.02,0M549.94,0h-102.93c-20.8.01-40.95,7.42-56.78,20.86-15.82,13.44-26.39,32.13-29.76,52.62,0,.02,0,.05-.01.07l-10.58,64.79-53.78-38.41c-14.97-10.69-32.59-16.33-50.97-16.34-23.38,0-45.37,9.08-61.92,25.58-.02.02-.04.04-.06.06l-72.8,72.72s-.03.03-.04.04c-30.13,30.16-34.26,77.36-9.83,112.28h0s38.65,55.29,38.65,55.29l-65.85,10.95s-.09.02-.14.02c-20.42,3.44-39.04,14.04-52.41,29.86C7.36,406.23,0,426.34,0,447.05v102.77c-.08,42.63,30.32,79.01,72.29,86.51.03,0,.07.01.1.02l66.35,11.75-38.82,54.31c-12.05,16.88-17.75,37.52-16.06,58.16,1.69,20.64,10.67,40.08,25.29,54.75.02.02.05.05.07.07l72.76,72.8c16.57,16.58,38.6,25.7,62.04,25.7,18.03,0,35.37-5.45,50.16-15.76.04-.02.07-.05.11-.07l55.25-38.68,10.95,65.96c3.41,20.48,14,39.13,29.82,52.54,15.82,13.41,35.95,20.79,56.69,20.8h102.92c42.66,0,78.99-30.47,86.4-72.46l11.95-67.43,55.96,39.26c14.84,10.41,32.26,15.91,50.37,15.91,23.42,0,45.44-9.12,62.01-25.67.01-.01.03-.03.04-.04l72.76-72.83c14.71-14.74,23.71-34.25,25.37-54.97,1.66-20.72-4.11-41.42-16.27-58.28l-38.97-54.1,66.52-11.66s.06-.01.09-.02c42.05-7.43,72.52-43.81,72.46-86.5v-102.81c-.01-20.8-7.42-40.95-20.86-56.78-13.44-15.83-32.13-26.4-52.62-29.76-.02,0-.04,0-.06,0l-65.87-10.77,38.78-55.26c24.51-34.95,20.41-82.2-9.75-112.38l-72.83-72.79s-.03-.03-.04-.04c-16.56-16.52-38.56-25.62-61.96-25.63-18.49,0-36.21,5.71-51.22,16.51h0s-54.2,38.98-54.2,38.98l-11.64-66.55C629,30.54,592.66,0,549.94,0h0Z" fill="#555" stroke-width="0"/>
  </g>
  <g id="in-set">
    <path d="M499.3,387.08c62.22,0,112.26,50.04,112.26,112.26s-50.04,112.26-112.26,112.26-112.26-50.04-112.26-112.26,50.04-112.26,112.26-112.26M499.3,318.08c-24.47,0-48.21,4.78-70.58,14.21-21.64,9.12-41.04,22.17-57.67,38.8-16.63,16.63-29.69,36.03-38.8,57.67-9.43,22.37-14.2,46.12-14.2,70.58s4.78,48.21,14.2,70.58c9.12,21.64,22.17,41.04,38.8,57.67s36.03,29.69,57.67,38.8c22.37,9.43,46.12,14.21,70.58,14.21s48.21-4.78,70.58-14.21c21.64-9.12,41.04-22.17,57.67-38.8s29.69-36.03,38.8-57.67c9.43-22.37,14.21-46.12,14.21-70.58s-4.78-48.21-14.21-70.58c-9.12-21.64-22.17-41.04-38.8-57.67-16.63-16.63-36.03-29.69-57.67-38.8-22.37-9.43-46.12-14.21-70.58-14.21h0Z" fill="#555" stroke-width="0"/>
  </g>
</svg>