<?xml version="1.0" encoding="UTF-8"?>
<svg id="Layer_1" xmlns="http://www.w3.org/2000/svg" viewBox="0 0 32 32">
  <g>
    <path d="M17.73,9.52H7.79c-.34,0-.67.14-.92.38-.24.24-.38.57-.38.92v5.18h-.41c-.22,0-.41.15-.45.36-.01.06,0,.13,0,.19.02.06.05.12.09.16.04.05.09.09.15.11.06.03.12.04.18.04h1.06c.22,0,.41.15.45.36.01.06,0,.13,0,.19-.02.06-.05.12-.09.16-.04.05-.09.09-.15.11-.06.03-.12.04-.18.04h-1.06c-.22,0-.41.15-.45.36-.01.06,0,.13,0,.19.02.06.05.12.09.17.04.05.09.09.15.11.06.03.12.04.18.04h12.53c.11,0,.22-.05.31-.13.08-.08.13-.19.13-.31v-7.34c0-.34-.14-.67-.38-.92-.24-.24-.57-.38-.92-.38Z" fill="#fff" stroke="#000" stroke-miterlimit="10" stroke-width=".72"/>
    <path d="M8.55,19.46h-2.06c0,.34.14.67.38.92.24.24.57.38.92.38h.23c.04-.48.23-.93.53-1.3Z" fill="#fff" stroke="#000" stroke-miterlimit="10" stroke-width=".72"/>
    <path d="M18.59,19.46h-6.38c.3.37.49.82.53,1.3h5.84c.11,0,.22-.05.31-.13.08-.08.13-.19.13-.31v-.43c0-.11-.05-.22-.13-.31-.08-.08-.19-.13-.31-.13Z" fill="#fff" stroke="#000" stroke-miterlimit="10" stroke-width=".72"/>
    <path d="M10.38,22.48c.84,0,1.51-.68,1.51-1.51s-.68-1.51-1.51-1.51-1.51.68-1.51,1.51.68,1.51,1.51,1.51Z" fill="#fff" stroke="#000" stroke-miterlimit="10" stroke-width=".72"/>
    <path d="M26.17,16.78l-1.66-3.65c-.14-.3-.36-.56-.64-.74-.28-.18-.6-.28-.93-.28h-2.62c-.11,0-.22.05-.31.13-.08.08-.13.19-.13.31v6.8c.31-.33.72-.57,1.16-.68s.91-.09,1.34.06c.43.15.81.42,1.09.78.28.36.45.79.5,1.25h1.09c.34,0,.67-.14.92-.38.24-.24.38-.57.38-.92v-1.79c0-.31-.07-.61-.19-.89ZM24.2,16.43h-2.8c-.11,0-.22-.05-.31-.13s-.13-.19-.13-.31v-1.73c0-.11.05-.22.13-.31.08-.08.19-.13.31-.13h1.74c.17,0,.33.05.47.14.14.09.25.22.32.37l.67,1.47c.03.07.04.14.04.21,0,.07-.03.14-.07.2s-.09.11-.16.15c-.06.03-.13.05-.21.05h0Z" fill="#fff" stroke="#000" stroke-miterlimit="10" stroke-width=".72"/>
    <path d="M21.62,22.48c.84,0,1.51-.68,1.51-1.51s-.68-1.51-1.51-1.51-1.51.68-1.51,1.51.68,1.51,1.51,1.51Z" fill="#fff" stroke="#000" stroke-miterlimit="10" stroke-width=".72"/>
  </g>
  <path d="M16,.72c8.43,0,15.28,6.85,15.28,15.28s-6.85,15.28-15.28,15.28S.72,24.43.72,16,7.57.72,16,.72M16,0h0C7.16,0,0,7.16,0,16h0c0,8.84,7.16,16,16,16h0c8.84,0,16-7.16,16-16h0C32,7.16,24.84,0,16,0h0Z"/>
</svg>