<?xml version="1.0" encoding="UTF-8"?>
<svg id="rating-cn" xmlns="http://www.w3.org/2000/svg" viewBox="0 0 838.81 805.84">
  <g id="st-icon">
    <path d="M419.4,69c5.47,0,10.93,3.14,12.98,9.43l73.36,225.79c1.83,5.62,7.07,9.43,12.98,9.43h237.41c13.22,0,18.71,16.91,8.02,24.68l-192.07,139.55c-4.78,3.47-6.78,9.63-4.96,15.25l73.36,225.79c3.11,9.58-4.5,17.92-13.02,17.92-2.67,0-5.42-.82-7.97-2.67l-192.07-139.55c-2.39-1.74-5.21-2.61-8.02-2.61s-5.63.87-8.02,2.61l-192.07,139.55c-2.55,1.85-5.31,2.67-7.97,2.67-8.53,0-16.13-8.35-13.02-17.92l73.36-225.79c1.83-5.62-.17-11.78-4.96-15.25l-192.07-139.55c-10.69-7.77-5.2-24.68,8.02-24.68h237.41c5.91,0,11.15-3.81,12.98-9.43l73.36-225.79c2.04-6.29,7.51-9.43,12.98-9.43M419.4,0c-35.91,0-67.5,22.95-78.6,57.11l-60.94,187.54H82.68c-35.91,0-67.5,22.95-78.6,57.1-11.1,34.16.97,71.29,30.02,92.4l159.53,115.91-60.94,187.54c-4.14,12.75-5.15,26.41-2.92,39.5,2.11,12.38,7.15,24.32,14.55,34.52,15.57,21.43,40.62,34.23,67.01,34.23,17.48,0,34.26-5.48,48.53-15.85l159.53-115.91,159.53,115.91c14.27,10.37,31.05,15.85,48.53,15.85,26.39,0,51.44-12.79,67.01-34.23,7.41-10.2,12.44-22.13,14.55-34.51,2.23-13.09,1.22-26.75-2.92-39.5l-60.94-187.54,159.53-115.91c29.06-21.11,41.12-58.24,30.02-92.4s-42.68-57.11-78.6-57.11h-197.19l-60.94-187.54C486.91,22.95,455.32,0,419.4,0h0Z" fill="#555"/>
  </g>
</svg>