<?xml version="1.0" encoding="UTF-8"?>
<svg id="tt-icon" xmlns="http://www.w3.org/2000/svg" viewBox="0 0 999.99 1000">
  <path id="t-icon" d="M168.3,0h663.39c92.56,0,168.3,75.74,168.3,168.31v663.39c0,92.57-75.73,168.3-168.3,168.3H168.3C75.73,1000,0,924.27,0,831.7V168.31C0,75.74,75.73,0,168.3,0h0ZM616.18,364.92c16.57,17.58,36.82,31.47,58.62,41.75,19.02,8.96,39.31,15.23,59.98,18.93l17.36,3.1,19.38-98.25-18.05-3.16c-25.57-4.48-48.69-15.67-69.13-31.5-26.43-20.48-47.74-48.24-63.54-77.51l-5.08-9.42h-101.48v388.69c0,24.27-9.62,47.49-26.92,64.8-17.31,17.31-40.54,26.93-65.02,26.93s-47.7-9.62-65.02-26.93c-17.3-17.31-26.92-40.53-26.92-65.01s9.61-47.7,26.92-65.01c17.31-17.31,40.54-26.93,65.02-26.93h35.97v-101.9h-35.97c-51.57,0-100.61,20.31-137.06,56.77-36.46,36.46-56.78,85.5-56.78,137.07s20.31,100.61,56.78,137.07c36.46,36.46,85.5,56.78,137.06,56.78s100.61-20.32,137.07-56.78c36.46-36.46,56.77-85.5,56.77-137.07v-216.3h.02v-16.1Z" fill="#555" fill-rule="evenodd"/>
</svg>