<?xml version="1.0" encoding="UTF-8"?>
<svg id="trend-cn" xmlns="http://www.w3.org/2000/svg" viewBox="0 0 959.39 515.68">
  <path d="M946.32,13.47c-8.39-8.69-19.51-13.47-31.35-13.47-.06,0-.12,0-.19,0l-290.68,1.23c-26.74.11-48.44,22.83-48.37,50.64v5.04c.05,13.51,5.14,26.19,14.36,35.71,9.17,9.47,21.31,14.67,34.22,14.67.07,0,.15,0,.22,0l151.57-.69-220.73,214.89-185.99-178.53c-16.36-15.71-41.09-15.76-57.52-.14L16.58,423.56C6.53,433.11.66,446.16.05,460.3c-.61,14.14,4.11,27.69,13.3,38.13,9.63,10.96,23.35,17.24,37.63,17.24,12.75,0,24.96-4.93,34.38-13.88l254.99-242.44,186.47,178.99c16.28,15.63,41.71,15.54,57.89-.21l277.5-270.15v181.38c0,27.85,21.79,50.51,48.57,50.51s48.57-22.66,48.57-50.5l.04-303.16c0-12.38-4.64-24-13.08-32.74Z" fill='rgb(22 163 74)'/>
</svg>