<svg height="115px" width="105px" version="1.1" id="Layer_1" xmlns="http://www.w3.org/2000/svg" xmlns:xlink="http://www.w3.org/1999/xlink" x="0px" y="0px" viewBox="0 0 849 983.5" style="enable-background:new 0 0 849 983.5;" xml:space="preserve">
            <style type="text/css">
              .st0{fill:#FFFFFF;}
              .st1{fill:#FFFFFF;}
            </style>
            <g>
              <g>
                <path class="st1" d="M424.9,935.2C424.9,935.3,425,935.1,424.9,935.2C425,935.2,424.9,935.2,424.9,935.2z"></path>
              </g>
            </g>
            <g>
              <g>
                <path class="st1" d="M849.2,17.4v776c0,27.9-15.6,58.1-42.9,82.6c-27.7,25-62.9,39.8-96.5,40.8c-24.3,0.7-49.5,0.9-73.9,1.1
                  c-59.4,0.4-115.6,0.9-148.7,8.8c-29.2,7.1-45.3,24.7-53.7,38.3c-4.2,6.9-6.9,13.4-8.6,18.4c-1.7-5-4.4-11.5-8.6-18.4
                  c-8.3-13.6-24.4-31.3-53.6-38.3c-33.1-8-89.2-8.4-148.6-8.8c-24.4-0.2-49.6-0.4-73.9-1.1c-33.6-1-68.8-15.9-96.5-40.8
                  c-27.3-24.6-42.9-54.7-42.9-82.6v-776h241.6v22.1H23.2v740.3c0,62.6,55.8,114.3,127.1,117.6c25.9,1.2,53.7,1.7,80.6,2.1l1.4,0
                  c69.7,1.2,114.9,4.2,142.2,9.5c28.4,5.5,48.2,33,48.4,33.3l2.2,3.1l2.1-3.1c0.2-0.3,19-27.7,48.4-33.2
                  c27.6-5.2,75.5-8.4,142.2-9.5l1.5,0c26.8-0.4,54.6-0.9,80.5-2.1c71.3-3.3,127.1-55,127.1-117.6V39.5H607.6V17.4H849.2z"></path>
              </g>
            </g>
            <g>
              <path class="st1" d="M452.6,756.3h-59.9v84.6H281.6v-84.6h-213v-81.5l180.8-276h118L203.3,657.1h81.7V582h107.7v75.1h59.9V756.3z"></path>
              <path class="st1" d="M781.3,398.9v78.3L639.1,840.9H514.8L650.6,498H544.7v68.2h-97.3V398.9H781.3z"></path>
            </g>
            <g>
              <path class="st0" d="M143.3,268.1V292h41.8v16.8h-41.8v32.9h-20.9v-90.4h68.3v16.8H143.3z"></path>
              <path class="st0" d="M237.1,296.5c0-26.9,20.9-46.8,49.5-46.8c28.4,0,49.5,19.8,49.5,46.8c0,27-21,46.7-49.5,46.7
                C258,343.2,237.1,323.3,237.1,296.5z M314.8,296.5c0-17.2-12.1-28.9-28.3-28.9s-28.3,11.8-28.3,28.9c0,17.2,12.1,28.9,28.3,28.9
                S314.8,313.7,314.8,296.5z"></path>
              <path class="st0" d="M448.1,341.7l-17.4-25.2h-1h-18.2v25.2h-20.9v-90.4h39.1c24.2,0,39.3,12.5,39.3,32.8
                c0,13.6-6.8,23.5-18.6,28.5l20.3,29.1H448.1z M428.5,268.3h-17v31.5h17c12.8,0,19.2-5.9,19.2-15.8
                C447.7,274.1,441.2,268.3,428.5,268.3z"></path>
              <path class="st0" d="M518.5,296.5c0-27.3,20.9-46.8,49.1-46.8c15.6,0,28.7,5.7,37.2,16l-13.4,12.4c-6.1-7-13.7-10.6-22.7-10.6
                c-16.9,0-28.9,11.9-28.9,28.9c0,17,12,28.9,28.9,28.9c9,0,16.7-3.6,22.7-10.7l13.4,12.4c-8.5,10.5-21.6,16.1-37.3,16.1
                C539.4,343.2,518.5,323.7,518.5,296.5z"></path>
              <path class="st0" d="M727.6,324.9v16.8h-70v-90.4h68.3v16.8h-47.5v19.6h42V304h-42v20.9H727.6z"></path>
            </g>
            <g>
              <path class="st0" d="M95.3,129.8H53.4V99.2h122.2v30.6h-41.7v105.9H95.3V129.8z"></path>
              <path class="st0" d="M249.7,199.4h-21.1v36.3h-38.6V99.2h62.4c37.2,0,60.6,19.3,60.6,50.5c0,20.1-9.7,34.9-26.7,43.1l29.4,42.9
                h-41.3L249.7,199.4z M250.1,129.6h-21.4v40h21.4c16,0,24-7.4,24-19.9C274.1,137,266.1,129.6,250.1,129.6z"></path>
              <path class="st0" d="M333.2,174.8V99.2h38.6v74.5c0,23.4,9.7,32.8,25.9,32.8c16,0,25.7-9.4,25.7-32.8V99.2h38v75.6
                c0,40.7-23.8,63.6-64.1,63.6S333.2,215.6,333.2,174.8z"></path>
              <path class="st0" d="M610.8,235.7l-0.4-72.3l-35.1,58.9h-17.2l-34.9-56.9v70.4h-35.7V99.2h31.8l48,78.8l46.8-78.8h31.8l0.4,136.5
                H610.8z"></path>
              <path class="st0" d="M796.5,149.7c0,31-23.4,50.3-60.6,50.3h-23.8v35.7h-38.6V99.2h62.4C773.1,99.2,796.5,118.5,796.5,149.7z
                M757.5,149.7c0-12.7-8-20.1-24-20.1h-21.4v40h21.4C749.5,169.6,757.5,162.2,757.5,149.7z"></path>
            </g>
            <g>
              <g>
                <polygon class="st1" points="425,3.2 430.7,20.9 449.4,20.9 434.3,31.8 440,49.6 425,38.6 409.9,49.6 415.7,31.8 400.6,20.9 
                  419.2,20.9 		"></polygon>
              </g>
              <g>
                <polygon class="st1" points="297.1,3.2 302.8,20.9 321.5,20.9 306.4,31.8 312.2,49.6 297.1,38.6 282,49.6 287.8,31.8 272.7,20.9 
                  291.3,20.9 		"></polygon>
              </g>
              <g>
                <polygon class="st1" points="361,3.2 366.8,20.9 385.4,20.9 370.3,31.8 376.1,49.6 361,38.6 346,49.6 351.7,31.8 336.6,20.9 
                  355.3,20.9 		"></polygon>
              </g>
              <g>
                <polygon class="st1" points="552.9,3.2 558.6,20.9 577.3,20.9 562.2,31.8 567.9,49.6 552.9,38.6 537.8,49.6 543.5,31.8 
                  528.5,20.9 547.1,20.9 		"></polygon>
              </g>
              <g>
                <polygon class="st1" points="488.9,3.2 494.7,20.9 513.3,20.9 498.2,31.8 504,49.6 488.9,38.6 473.8,49.6 479.6,31.8 464.5,20.9 
                  483.2,20.9 		"></polygon>
              </g>
            </g>
          </svg>