<svg id="user-icon" data-name="user-icon" xmlns="http://www.w3.org/2000/svg" viewBox="0 0 783.03 1000">
  <g id="u-h">
    <path d="M391.51,69c47.48,0,92.12,18.49,125.69,52.06,33.57,33.57,52.06,78.21,52.06,125.69s-18.49,92.12-52.06,125.69c-33.57,33.57-78.21,52.06-125.69,52.06s-92.12-18.49-125.69-52.06c-33.57-33.57-52.06-78.21-52.06-125.69s18.49-92.12,52.06-125.69c33.57-33.57,78.21-52.06,125.69-52.06M391.51,0c-136.28,0-246.75,110.47-246.75,246.75s110.47,246.75,246.75,246.75,246.75-110.47,246.75-246.75S527.79,0,391.51,0h0Z" fill="#555" stroke-width="0"/>
  </g>
  <g id="u-h-2" data-name="u-h">
    <path d="M699.81,674.88c7.84,0,14.21,6.38,14.21,14.21v8.41c0,40.73-7.77,76.44-23.09,106.16-13.91,26.98-34.68,50.1-61.72,68.73-55.66,38.34-137.86,58.61-237.7,58.61s-182.04-20.27-237.7-58.61c-27.04-18.63-47.81-41.75-61.72-68.73-15.32-29.71-23.09-65.43-23.09-106.16v-10.15c0-6.88,5.6-12.47,12.47-12.47h618.34M699.81,605.88H81.47c-45,0-81.47,36.48-81.47,81.47v10.15c0,214.56,175.29,302.49,391.51,302.49s391.51-87.93,391.51-302.49v-8.41c0-45.96-37.26-83.21-83.21-83.21h0Z" fill="#555" stroke-width="0"/>
  </g>
</svg>