<?xml version="1.0" encoding="UTF-8"?>
<svg id="ven-g" xmlns="http://www.w3.org/2000/svg" viewBox="0 0 1500 1500">
  <path id="os-0" d="M1088.63,611.73,1088.63,635.57v495.11H411.37v-495.11M342.37,635.57v525.48c0,21.34,17.3,38.64,38.64,38.64h737.98c21.34,0,38.64-17.3,38.64-38.64v-525.48" fill="#555" stroke-width="0"/>
  <g id="roof-s">
    <g id="fl4">
      <path d="M1050,612.04h-200c0,68.61,44.77,124.22,100,124.22s100-55.62,100-124.22h0Z" fill="#555" stroke-width="0"/>
    </g>
    <g id="fl3">
      <path d="M850,612.04h-200c0,68.61,44.77,124.22,100,124.22s100-55.62,100-124.22h0Z" fill="#555" stroke-width="0"/>
    </g>
    <g id="fl2">
      <path d="M650,612.04h-200c0,68.61,44.77,124.22,100,124.22s100-55.62,100-124.22h0Z" fill="#555" stroke-width="0"/>
    </g>
    <g id="fl1">
      <path d="M1250,612.04h-200c0,68.61,44.77,124.22,100,124.22s100-55.62,100-124.22h0Z" fill="#555" stroke-width="0"/>
    </g>
    <g id="fl0">
      <path d="M450,612.04h-200c0,68.61,44.77,124.22,100,124.22s100-55.62,100-124.22h0Z" fill="#555" stroke-width="0"/>
    </g>
    <path id="roof" d="M1042.34,375l129.09,237.04h-436.27s-406.59,0-406.59,0l108.97-200.1,20.12-36.94h584.68M1083.33,306H416.67c-55.56,102.01-111.11,204.03-166.67,306.04h1000c-55.56-102.01-111.11-204.03-166.67-306.04h0Z" fill="#555" stroke-width="0"/>
    <g id="st0">
      <polygon points="850 612.04 780.95 306 905.4 306 1050 612.04 850 612.04" fill="#555" stroke-width="0"/>
    </g>
    <g id="st1">
      <polygon points="650 612.04 719.05 306 594.6 306 450 612.04 650 612.04" fill="#555" stroke-width="0"/>
    </g>
  </g>
  <g id="window">
    <line id="w-0" x1="797.27" y1="937.17" x2="867.98" y2="866.46" fill="none" stroke="#555" stroke-linecap="round" stroke-miterlimit="10" stroke-width="30"/>
    <line id="w-1" x1="841.51" y1="1019.74" x2="947.57" y2="913.68" fill="none" stroke="#555" stroke-linecap="round" stroke-miterlimit="10" stroke-width="30"/>
    <g id="w-3">
      <path d="M1011.89,790.11c16.74,0,30.36,13.62,30.36,30.36v215.74c0,16.74-13.62,30.36-30.36,30.36h-265.49c-16.74,0-30.36-13.62-30.36-30.36v-215.74c0-16.74,13.62-30.36,30.36-30.36h265.49M1011.89,760.11h-265.49c-33.34,0-60.36,27.02-60.36,60.36v215.74c0,33.34,27.02,60.36,60.36,60.36h265.49c33.34,0,60.36-27.02,60.36-60.36v-215.74c0-33.34-27.02-60.36-60.36-60.36h0Z" fill="#555" stroke-width="0"/>
    </g>
  </g>
  <g id="dr">
    <g id="dr-0">
      <path d="M606.49,836c7.45,0,13.51,6.06,13.51,13.51v287.55c0,7.45-6.06,13.51-13.51,13.51h-127.9c-7.45,0-13.51-6.06-13.51-13.51v-287.55c0-7.45,6.06-13.51,13.51-13.51h127.9M606.49,806h-127.9c-24.03,0-43.51,19.48-43.51,43.51v287.55c0,24.03,19.48,43.51,43.51,43.51h127.9c24.03,0,43.51-19.48,43.51-43.51v-287.55c0-24.03-19.48-43.51-43.51-43.51h0Z" fill="#555" stroke-width="0"/>
    </g>
    <line id="h-0" x1="577.17" y1="1009.28" x2="577.17" y2="979.91" fill="none" stroke="#555" stroke-linecap="round" stroke-miterlimit="10" stroke-width="30"/>
  </g>
</svg>