<?xml version="1.0" encoding="UTF-8"?>
<svg id="verified-icon" xmlns="http://www.w3.org/2000/svg" viewBox="0 0 1000 1000">
  <g id="ic-group">
    <g id="ic-cn">
      <path id="ic-path" d="M1000,500c0,41.32-81.02,71.44-91.24,109.56-10.52,39.44,44.28,105.99,24.3,140.51-20.25,35.01-105.47,20.66-133.91,49.09-28.4,28.43-14.05,113.62-49.09,133.9-34.52,19.98-101.08-34.86-140.48-24.3-38.12,10.18-68.25,91.23-109.57,91.23s-71.48-81.05-109.57-91.23c-39.44-10.56-106,44.28-140.52,24.3-35.05-20.28-20.7-105.47-49.09-133.9-28.43-28.43-113.66-14.08-133.91-49.09-19.98-34.52,34.86-101.07,24.3-140.51C81.06,571.44,0,541.32,0,500s81.06-71.44,91.24-109.56c10.55-39.44-44.28-105.99-24.3-140.51,20.25-35.01,105.47-20.66,133.91-49.09,28.44-28.43,14.09-113.62,49.09-133.9,34.52-19.98,101.08,34.86,140.52,24.3C428.58,81.05,458.7,0,500.02,0s71.44,81.05,109.57,91.23c39.44,10.56,106-44.24,140.52-24.3,35.01,20.28,20.66,105.51,49.09,133.9,28.4,28.43,113.62,14.08,133.87,49.13,19.98,34.52-34.82,101.04-24.27,140.48,10.18,38.12,91.2,68.25,91.2,109.56Z" fill="#0061A0"/>
    </g>
    <polygon id="check-ic" points="446.24 687.68 288.11 529.54 356.21 461.44 446.24 551.48 680.74 316.99 748.84 385.08 446.24 687.68" fill="#fff"/>
  </g>
</svg>