<svg fill="none" height="32" viewBox="0 0 32 32" width="32" xmlns="http://www.w3.org/2000/svg"><g clip-path="url(#clip0_1566_6)"><path d="M9.18085 11.3333H8.51416V12H9.18085C9.26926 12 9.35404 11.9649 9.41656 11.9024C9.47907 11.8399 9.51419 11.7551 9.51419 11.6667C9.51419 11.5782 9.47907 11.4935 9.41656 11.4309C9.35404 11.3684 9.26926 11.3333 9.18085 11.3333Z" fill="white"></path><path d="M18.6665 6H3.33314C2.80271 6 2.294 6.21071 1.91893 6.58579C1.54386 6.96086 1.33314 7.46957 1.33314 8V16H0.701895C0.370082 16 0.0622696 16.2269 0.00889464 16.5547C-0.00732131 16.6504 -0.00247499 16.7484 0.0230957 16.842C0.0486664 16.9356 0.0943459 17.0225 0.156949 17.0966C0.219553 17.1708 0.297573 17.2304 0.385571 17.2713C0.473568 17.3121 0.569425 17.3333 0.666457 17.3334H2.29771C2.62983 17.3334 2.93758 17.5603 2.99096 17.8881C3.00717 17.9837 3.00233 18.0818 2.97676 18.1754C2.95119 18.269 2.90551 18.3559 2.8429 18.43C2.7803 18.5042 2.70228 18.5637 2.61428 18.6046C2.52628 18.6455 2.43043 18.6667 2.33339 18.6667H0.702145C0.370082 18.6667 0.0622696 18.8937 0.00889464 19.2213C-0.00732131 19.317 -0.00247499 19.415 0.0230957 19.5086C0.0486664 19.6022 0.0943459 19.6891 0.156949 19.7633C0.219553 19.8374 0.297573 19.897 0.385571 19.9379C0.473568 19.9788 0.569425 20 0.666457 20H19.9998C20.1766 20 20.3462 19.9298 20.4712 19.8047C20.5962 19.6797 20.6665 19.5101 20.6665 19.3333V8C20.6665 7.46957 20.4557 6.96086 20.0807 6.58579C19.7056 6.21071 19.1969 6 18.6665 6ZM5.99977 11.3333H4.66646V12H5.66646C5.75455 11.9991 5.84193 12.0158 5.92356 12.0489C6.00519 12.082 6.07945 12.131 6.14204 12.193C6.20464 12.255 6.25432 12.3287 6.28823 12.41C6.32214 12.4913 6.3396 12.5786 6.3396 12.6667C6.3396 12.7548 6.32214 12.842 6.28823 12.9233C6.25432 13.0046 6.20464 13.0784 6.14204 13.1404C6.07945 13.2023 6.00519 13.2513 5.92356 13.2844C5.84193 13.3176 5.75455 13.3342 5.66646 13.3333H4.66646V14.6666C4.66476 14.8423 4.59377 15.0102 4.46893 15.1339C4.3441 15.2575 4.1755 15.3269 3.9998 15.3269C3.8241 15.3269 3.65551 15.2575 3.53067 15.1339C3.40583 15.0102 3.33485 14.8423 3.33314 14.6666V10.6666C3.33316 10.4898 3.4034 10.3203 3.52841 10.1953C3.65343 10.0703 3.82297 10 3.99977 10H5.99977C6.17546 10.0017 6.34338 10.0727 6.46701 10.1975C6.59065 10.3224 6.66 10.491 6.66 10.6667C6.66 10.8424 6.59065 11.011 6.46701 11.1358C6.34338 11.2606 6.17546 11.3316 5.99977 11.3333ZM10.5987 14.2277C10.6564 14.2936 10.7005 14.3701 10.7285 14.4531C10.7566 14.536 10.768 14.6236 10.7622 14.711C10.7564 14.7983 10.7334 14.8836 10.6946 14.9621C10.6558 15.0406 10.6019 15.1106 10.5361 15.1683C10.4702 15.2259 10.3936 15.27 10.3107 15.2981C10.2278 15.3261 10.1401 15.3376 10.0528 15.3318C9.96544 15.3259 9.88009 15.303 9.80163 15.2642C9.72316 15.2254 9.6531 15.1715 9.59546 15.1056L8.51377 13.8694V14.6666C8.51207 14.8423 8.44108 15.0102 8.31624 15.1339C8.19141 15.2575 8.02281 15.3269 7.84711 15.3269C7.67142 15.3269 7.50282 15.2575 7.37798 15.1339C7.25314 15.0102 7.18216 14.8423 7.18046 14.6666V10.6666C7.18047 10.4898 7.25071 10.3203 7.37573 10.1953C7.50074 10.0703 7.67029 10 7.84708 10H9.18039C9.57377 10 9.95446 10.1392 10.2551 10.3928C10.5558 10.6465 10.757 10.9983 10.8233 11.3861C10.8895 11.7738 10.8165 12.1725 10.6171 12.5116C10.4177 12.8507 10.1048 13.1083 9.73377 13.2389L10.5987 14.2277ZM13.8185 12C13.9066 11.9991 13.994 12.0158 14.0756 12.0489C14.1573 12.082 14.2315 12.131 14.2941 12.193C14.3567 12.255 14.4064 12.3287 14.4403 12.41C14.4742 12.4913 14.4917 12.5786 14.4917 12.6667C14.4917 12.7548 14.4742 12.842 14.4403 12.9233C14.4064 13.0046 14.3567 13.0784 14.2941 13.1404C14.2315 13.2023 14.1573 13.2513 14.0756 13.2844C13.994 13.3176 13.9066 13.3342 13.8185 13.3333H12.8331V14H14.1664C14.2545 13.9991 14.3419 14.0158 14.4235 14.0489C14.5051 14.082 14.5794 14.131 14.642 14.193C14.7046 14.255 14.7543 14.3287 14.7882 14.41C14.8221 14.4913 14.8395 14.5786 14.8395 14.6667C14.8395 14.7548 14.8221 14.842 14.7882 14.9233C14.7543 15.0046 14.7046 15.0784 14.642 15.1404C14.5794 15.2023 14.5051 15.2513 14.4235 15.2844C14.3419 15.3176 14.2545 15.3342 14.1664 15.3333H12.1664C11.9896 15.3333 11.8201 15.2631 11.695 15.138C11.57 15.013 11.4998 14.8435 11.4998 14.6667V10.6667C11.4998 10.4899 11.57 10.3203 11.695 10.1953C11.8201 10.0702 11.9896 10 12.1665 10H14.1665C14.3421 10.0017 14.5101 10.0727 14.6337 10.1975C14.7573 10.3224 14.8267 10.491 14.8267 10.6667C14.8267 10.8424 14.7573 11.011 14.6337 11.1358C14.5101 11.2606 14.3421 11.3316 14.1665 11.3333H12.8331V12H13.8185ZM17.6515 12C17.7396 11.9991 17.827 12.0158 17.9086 12.0489C17.9903 12.082 18.0645 12.131 18.1271 12.193C18.1897 12.255 18.2394 12.3287 18.2733 12.41C18.3072 12.4913 18.3247 12.5786 18.3247 12.6667C18.3247 12.7548 18.3072 12.842 18.2733 12.9233C18.2394 13.0046 18.1897 13.0784 18.1271 13.1404C18.0645 13.2023 17.9903 13.2513 17.9086 13.2844C17.827 13.3176 17.7396 13.3342 17.6515 13.3333H16.6665V14H17.9998C18.0879 13.9991 18.1752 14.0158 18.2569 14.0489C18.3385 14.082 18.4128 14.131 18.4754 14.193C18.5379 14.255 18.5876 14.3287 18.6215 14.41C18.6555 14.4913 18.6729 14.5786 18.6729 14.6667C18.6729 14.7548 18.6555 14.842 18.6215 14.9233C18.5876 15.0046 18.5379 15.0784 18.4754 15.1404C18.4128 15.2023 18.3385 15.2513 18.2569 15.2844C18.1752 15.3176 18.0879 15.3342 17.9998 15.3333H15.9998C15.823 15.3333 15.6534 15.2631 15.5283 15.138C15.4033 15.013 15.3331 14.8434 15.3331 14.6666V10.6666C15.3331 10.4898 15.4033 10.3203 15.5284 10.1952C15.6534 10.0702 15.823 10 15.9998 10H17.9998C18.1755 10.0017 18.3434 10.0727 18.467 10.1975C18.5906 10.3224 18.66 10.491 18.66 10.6667C18.66 10.8424 18.5906 11.011 18.467 11.1358C18.3434 11.2606 18.1755 11.3316 17.9998 11.3333H16.6665V12H17.6515Z" fill="white"></path><path d="M4.505 21.3333H1.3335C1.3335 21.8637 1.54421 22.3725 1.91928 22.7475C2.29436 23.1226 2.80306 23.3333 3.3335 23.3333H3.6835C3.74896 22.599 4.03537 21.9017 4.505 21.3333Z" fill="white"></path><path d="M19.9998 21.3333H10.1616C10.6312 21.9017 10.9176 22.599 10.983 23.3333H19.9998C20.1766 23.3333 20.3462 23.2631 20.4712 23.138C20.5963 23.013 20.6665 22.8434 20.6665 22.6666V22C20.6665 21.8232 20.5963 21.6536 20.4712 21.5286C20.3462 21.4036 20.1766 21.3333 19.9998 21.3333Z" fill="white"></path><path d="M7.33331 26C8.62197 26 9.66663 24.9553 9.66663 23.6667C9.66663 22.378 8.62197 21.3334 7.33331 21.3334C6.04466 21.3334 5 22.378 5 23.6667C5 24.9553 6.04466 26 7.33331 26Z" fill="white"></path><path d="M31.7012 17.1983L29.1396 11.5631C28.9273 11.0975 28.5856 10.7026 28.1554 10.4255C27.7251 10.1484 27.2243 10.0007 26.7125 10H22.6667C22.4899 10 22.3203 10.0702 22.1953 10.1953C22.0702 10.3203 22 10.4899 22 10.6667V21.1553C22.4833 20.6405 23.1051 20.2765 23.7905 20.107C24.4759 19.9375 25.1957 19.9698 25.8632 20.1999C26.5307 20.4301 27.1174 20.8483 27.5526 21.4043C27.9879 21.9602 28.2532 22.6301 28.3165 23.3333H30C30.5304 23.3333 31.0391 23.1226 31.4142 22.7475C31.7893 22.3725 32 21.8637 32 21.3333V18.5776C32 18.1018 31.8981 17.6315 31.7012 17.1983ZM28.6616 16.6666H24.3333C24.1565 16.6666 23.987 16.5964 23.862 16.4714C23.7369 16.3463 23.6667 16.1768 23.6667 16V13.3333C23.6667 13.1565 23.7369 12.9869 23.862 12.8619C23.987 12.7369 24.1566 12.6666 24.3334 12.6666H27.0203C27.2763 12.6666 27.5268 12.7402 27.7421 12.8788C27.9573 13.0173 28.1281 13.2149 28.2341 13.4479L29.2687 15.7241C29.3149 15.8257 29.3349 15.9372 29.3267 16.0485C29.3186 16.1598 29.2827 16.2672 29.2223 16.361C29.1619 16.4548 29.0789 16.5319 28.9809 16.5853C28.883 16.6388 28.7732 16.6667 28.6616 16.6667V16.6666Z" fill="white"></path><path d="M24.6668 26C25.9555 26 27.0001 24.9553 27.0001 23.6667C27.0001 22.378 25.9555 21.3334 24.6668 21.3334C23.3782 21.3334 22.3335 22.378 22.3335 23.6667C22.3335 24.9553 23.3782 26 24.6668 26Z" fill="white"></path></g><defs><clipPath id="clip0_1566_6"><rect fill="white" height="32" width="32"></rect></clipPath></defs></svg>