<?xml version="1.0" encoding="UTF-8"?>
<svg xmlns="http://www.w3.org/2000/svg" viewBox="0 0 2361.79 1541.3">
  <g id="american" isolation="isolate">
    <g id="pecans">
      <path fill='white' d="M2255.29,1216.5c-1.67-72.33-3.33-144.67-5-217-.33-14.67-.67-29.33-1-44v-104c.33-17.66.67-35.34,1-53,.33-35.33.67-70.67,1-106,.67-35.66,1.33-71.34,2-107,.33-73.99.67-148.01,1-222-.33-82.33-.67-164.67-1-247,0-36.03,5.68-80.49-16-97-42.72-32.53-127.77-4.39-192-15-168.32-1.33-336.68-2.67-505-4-112.66,1.67-225.34,3.33-338,5-67.99,1-136.01,2-204,3-36.33.33-72.67.67-109,1-36.33-.33-72.67-.67-109-1-123.65-1-247.35-2-371-3-98.99-.33-198.01-.67-297-1-37.16,5.99-68.82-1.51-86,23-23.8,33.96.11,148.88-9,204-.67,49-1.33,98-2,147-9.03,54.59-4,118.54-4,178v224c-.67,30.33-1.33,60.67-2,91-1.33,41.66-2.67,83.34-4,125-7.15,43.13-5.88,127.39,1,170,.33,65.99.67,132.01,1,198,0,43.45-9.33,151.38,14,169,21.31,16.09,54.21,1.64,76-6,66.66-21.33,133.34-42.67,200-64,50.66-16.67,101.34-33.34,152-50,117.65-33.33,235.35-66.67,353-100,56.99-16,114.01-32,171-48,48.84-14.74,96.3-30.03,150-39,35.64-5.96,66.76,11.52,91,20,55.66,18.66,111.34,37.34,167,56,195.65,56.99,391.35,114.01,587,171,67.33,19,134.67,38,202,57,26.38,8.1,60.09,16.83,77-6,12.48-16.85,8.01-56.41,8-85v-223ZM1278.29,191.5c26.1-1.23,51.01,19.03,39,43-12.24,25.55-73.85-16.21-39-43ZM472.29,753.5c0,37.85-3.08,64.96-17,88-15.76,26.09-44.09,50.51-78,58-26.17,5.78-67.99-5.82-76,18-.33,14.33-.67,28.67-1,43,0,42.96,6.23,100.02-4,136-15.86,9.23-63.87,9.49-81,1-12.6-32.93-5-106.89-5-150v-257c0-39.59-5.99-93.4,4-126,4-1.67,8-3.33,12-5,121.75-.58,212.38-8.95,241,86,8.71,28.89,5,71.87,5,108ZM537.29,424.5c-28.87-7.51-36.34-28.65-35-66-23.16-8.14-52.1-7.57-79-12-13.77,11.48-46.9,57.34-53,75-15.76-3.69-23.78-16.13-37-22-3.16-9.65,39.69-56.12,48-67,54.77-71.72,121.18-130.37,186-192,11.19.1,22.23,2.15,29,7,1,.67,2,1.33,3,2-5.33,19.33-10.67,38.67-16,58-6.33,32.33-12.67,64.67-19,97-6.69,36.68,4.06,82.94-4,117-7.57,5.57-12.22,5.81-23,3ZM764.29,1033.5c-6.34,12.81-29.12,10-48,10-31.12,0-139.57,6.1-157-4-14.87-7.57-9-87.4-9-113v-244c0-37.22-5.91-87.24,3-119l12-6h124c24.86,0,53.99-1.41,73,4,7.55,13.99,6.93,49.28,2,66-27.24,15.74-101.25-6.16-125,11-14.47,10.46-8.19,55.27-8,77,.14,15.89,2,26.58,6,37,19.79,11.41,67.24-1.22,85,10,10.05,6.35,7.07,31.79,7,48-1,8-2,16-3,24-18.94,12.04-77.74-3.76-90,15-6.04,9.25-4.38,26.92-5,41-.9,20.44-4.59,57.63,9,67,20.37,14.05,92.89.63,121,8,7.35,10.82,10.79,53.11,3,68ZM910.29,715.5v134c.03,30.82-2.62,63.86,15,77,7.01,5.23,19.11,7.37,29,4,42.14-14.36,12.5-58.87,32-90,11.81-2.7,50.12-6.87,61,0,12.51,7.9,6.5,81.8,2,96-17.74,55.99-91.73,98.51-157,59-17.58-10.64-37.81-29.26-46-49-8.06-19.43-4.18-50.57-5-77-.33-43-.67-86-1-129,0-39.12-5.2-90.52,7-119,14.9-34.78,38.83-44.85,73-61,19.33.33,38.67.67,58,1,38.36,9.04,66.43,45.52,74,87,2.78,15.22,6.08,51.25-2,63-7.12,11.7-52.14,7.49-66,4-16.55-30.97,9.54-71.95-33-82-20.87-4.93-34.69,12.71-39,25-5.09,14.52-2,39.08-2,57ZM1361.29,996.5c-14.14,7.62-50.3,6.99-67,2-14.66-21.32-5.12-79.04-27-93-5.65-3.6-16.15-3.05-25-3-42.88.25-35.26,58.25-44,92-13.49,9.68-52.03,8.93-71,4-9.01-16.58,8.42-91.42,13-113,12.33-70.33,24.67-140.67,37-211,7.49-35.71,10.42-73.97,20-106,4-2,8-4,12-6,26.26-.05,56.97-1.6,80,2,16.31,24.21,15.15,68.18,22,101,13,74.99,26,150.01,39,225,5.8,27.69,18.63,80.27,11,106ZM1696.29,1029.5c-14.38,9.65-65.56,11.82-81,1-11.72-8.21-15.3-38.05-20-53-12.33-37-24.67-74-37-111-5.02-14.31-7.76-42.94-20-50-18.7-5.22-15,31.47-15,49,0,40.2,9.11,144.18-7,168-18.54,4.35-49.17,4.41-66-1-13.45-20.4-7-72-7-104v-258c0-28.32-6.09-97.2,9-109,12.53-2.43,66.76-4.08,76,1,14.31,6.88,17.06,36.76,22,53,12.67,41.33,25.33,82.67,38,124,5.09,16.42,5.86,39.53,20,47,1.67-.33,3.33-.67,5-1,8.11-14.19,7-37.12,7-60,0-48.05-7.36-120,4-160,6.27-3.73,14.58-2.9,23-6,13.54-.14,43-2.12,49,6,8.93,12.09,3,92.35,3,117v231c0,36.79,5.02,84.48-3,116ZM1731.29,409.5c5.46-23.56,25.37-45.97,19-74-1-.67-2-1.33-3-2-11.38,9.71-16.75,23.22-26,35-18.12,23.07-47.68,45.7-78,56-33.57,11.4-66.51-1.31-60-34-15.38,5.84-64.63,28.13-81,5-3.67-10.67-7.33-21.33-11-32v-2c-18.33,13.08-77.88,62.52-107,57-12.67-2.4-23.85-10.7-33-17-11.23-7.73-23.62-14.49-25-32-16.98,13.93-27.28,40.35-50,48-18.64,6.28-63.29-22.16-66-38-19.46,16.04-28.69,43.58-55,53-9.52,2.22-26-7.96-34-12-12.84-6.48-29.85-12.89-38-24-18.9-25.76,16.04-80.85,26-97-12.29,3.01-20.8,5.07-31-2-8,51.27-58.29,99-100,116-26.54,10.82-82.28-23.45-87-45h-1c-19.74,15.77-39.32,57.98-79,43-10.26-3.87-18.65-10.55-22-21-9.16-28.55,24.52-58.32,16-81v-2c-20.76.9-61.4,89.86-68,112-10.24,1.25-22.27-7.98-30-13,3.06-36.7,26.61-54.16,26-96-28.92.01-74.29,90.79-84,116-11.51,5.02-21.82-7.17-29-13,3.23-40.81,46.34-78.07,38-115v-6c-30.12,6.93-36.79,40.28-62,50-3.33-.33-6.67-.67-10-1-13.87-17.69,42.63-85.27,65-94,23.97-9.35,48.37,8.64,50,29h1c16.82-22.16,58.89-31.61,64,8,9.97-5.97,17.58-15.42,30-19,24.08-6.94,46.82,25.6,51,43,7.28,30.32-28.61,44.18-20,68v2c13.93-1.04,20.43-11.43,28-19,12.67-13.67,25.33-27.33,38-41,17.36-27.31,43.79-86.13,95-76,25.76,5.1,36.85,34.41,21,59-12.91,20.03-42.92,35.66-68,43-5.07,8.11-7.2,18.54-4,30,30.99,21.28,104.84-46.82,113-67,5.64-13.93,3.43-38.1,7-51,15.48-1.59,16.71,9.26,29,12,38.8,8.66,79.89-25.2,97-41,11.58,1.79,15.52,15.22,19,25-1.5,11.99-16.68,16.02-23,24-13.33,16.83-65.26,84.34-47,114,23.92-3.27,77.66-54.74,89-73,14.9-23.99,16.13-53.16,43-65,15.44,6.49,21.64,20.37,27,37-15.87,22.4-31.91,49.71-31,88,.67.33,1.33.67,2,1,24.07-19.62,55.38-36.35,73-62,20.59-29.98,35.36-54.3,67-73,28.09-16.59,74.17-3.39,64,40-3.67,15.68-16.7,22.14-24,34h-2c-7-9.67-14-19.33-21-29-.67-.33-1.33-.67-2-1-27.16,13.36-48.53,53.43-29,89,24.89-2.5,99.96-44.89,111-60,15.09-20.65,37.09-58.54,78-51,18.39,3.39,28.08,15.23,42,22,6.07,6.18,8.95-3.64,20-1,7.79,3.15,14.99,12.2,18,20,5.63,15.82-33.37,56.53-34,86,.67.33,1.33.67,2,1,28.89-2.22,81.18-54.37,99-73,12.14-12.69,17.21-29.69,42-30,6.97,5.91,13.6,10.41,15,22,.67.33,1.33.67,2,1,15.96-36.65,66.37-49.79,81-2,6.85,22.37-17.09,61.41-3,76,29.18-3.26,57.76-53.63,79-70,.67-.67,1.33-1.33,2-2,4,6.67,8,13.33,12,20-21.05,31.56-43.07,62.2-78,80-9.51,4.85-31.74,14.77-45,6-19.47-12.87-13.8-57.57-15-86-41.78,7.69-18.16,109.33-85,74ZM2045.29,1026.5c-12.19,28.59-37.26,62.19-69,71-14,1-28,2-42,3-75.81,11.54-112.86-27.29-136-73-9.87-19.5-23.21-50.46-15-78,15.22-10.31,57.34-15.25,78-9,16.14,24.27,14.33,62.14,43,74,47.52,19.65,69.39-44.83,53-83-7.93-18.46-25.6-31.61-39-45-51.47-51.45-165.67-133.18-126-251,6.69-19.87,17.03-36.37,29-51,14.08-17.21,39.17-28.75,64-35,8.33-1.33,16.67-2.67,25-4,71.34-1.14,106.98,26.32,128,75,4.4,10.2,19.27,41.13,10,53-5.41,9-64.1,24.2-79,14-9.31-6.37-10.06-25.13-16-35-15.65-25.99-54.73-27.19-67,3-21.55,53,23.95,100.99,50,122,55.11,44.46,156.48,137.62,109,249ZM2273.29,16.5h14v39h7V16.5h14v-6h-35v6ZM2350.29,10.5c-4,10.67-8,21.33-12,32-4.67-10.67-9.33-21.33-14-32h-11v45h7V21.5h1c4.33,11.33,8.67,22.67,13,34,6.81,4.15,18.23-28.88,19-34,.33,11.33.67,22.67,1,34h7V10.5h-11ZM465.29,297.5c-7.67,7.67-15.33,15.33-23,23,20.33,3,40.67,6,61,9,8.33-33.33,16.67-66.67,25-100-17.31,16.52-52.96,47.04-63,68ZM991.29,271.5c-1.33-1-2.67-2-4-3-14.66,6.99-28.51,15.39-31,34,17.68-4,27.95-16.49,35-31ZM1584.29,296.5c-11.49,8.95-55.51,50-44,71,5.98,7.95,22.36,2.6,29-1,17.7-9.59,39.82-36.77,44-59-7.01-7.52-13.59-11.53-29-11ZM320.29,650.5c-4.33,1.33-8.67,2.67-13,4-2.33,4.33-4.67,8.67-7,13-3.47,15.2-2.16,127.59,4,137,6.03,9.21,25.19,14.06,41,10,61.76-15.87,68.46-165.71-25-164ZM1241.29,754.5c-11,15.6-14.55,47.1-14,73,9.1,5.96,23.6,5.58,35,2,8.32-18.2-5.22-60.2-12-74-3-.33-6-.67-9-1Z" fill-rule="evenodd"/>
      <path d="M2255.29,1216.5c-1.67-72.33-3.33-144.67-5-217-.33-14.67-.67-29.33-1-44v-104c.33-17.66.67-35.34,1-53,.33-35.33.67-70.67,1-106,.67-35.66,1.33-71.34,2-107,.33-73.99.67-148.01,1-222-.33-82.33-.67-164.67-1-247,0-36.03,5.68-80.49-16-97-42.72-32.53-127.77-4.39-192-15-168.32-1.33-336.68-2.67-505-4-112.66,1.67-225.34,3.33-338,5-67.99,1-136.01,2-204,3-36.33.33-72.67.67-109,1-36.33-.33-72.67-.67-109-1-123.65-1-247.35-2-371-3-98.99-.33-198.01-.67-297-1-37.16,5.99-68.82-1.51-86,23-23.8,33.96.11,148.88-9,204-.67,49-1.33,98-2,147-9.03,54.59-4,118.54-4,178v224c-.67,30.33-1.33,60.67-2,91-1.33,41.66-2.67,83.34-4,125-7.15,43.13-5.88,127.39,1,170,.33,65.99.67,132.01,1,198,0,43.45-9.33,151.38,14,169,21.31,16.09,54.21,1.64,76-6,66.66-21.33,133.34-42.67,200-64,50.66-16.67,101.34-33.34,152-50,117.65-33.33,235.35-66.67,353-100,56.99-16,114.01-32,171-48,48.84-14.74,96.3-30.03,150-39,35.64-5.96,66.76,11.52,91,20,55.66,18.66,111.34,37.34,167,56,195.65,56.99,391.35,114.01,587,171,67.33,19,134.67,38,202,57,26.38,8.1,60.09,16.83,77-6,12.48-16.85,8.01-56.41,8-85v-223ZM1278.29,191.5c26.1-1.23,51.01,19.03,39,43-12.24,25.55-73.85-16.21-39-43ZM472.29,753.5c0,37.85-3.08,64.96-17,88-15.76,26.09-44.09,50.51-78,58-26.17,5.78-67.99-5.82-76,18-.33,14.33-.67,28.67-1,43,0,42.96,6.23,100.02-4,136-15.86,9.23-63.87,9.49-81,1-12.6-32.93-5-106.89-5-150v-257c0-39.59-5.99-93.4,4-126,4-1.67,8-3.33,12-5,121.75-.58,212.38-8.95,241,86,8.71,28.89,5,71.87,5,108ZM537.29,424.5c-28.87-7.51-36.34-28.65-35-66-23.16-8.14-52.1-7.57-79-12-13.77,11.48-46.9,57.34-53,75-15.76-3.69-23.78-16.13-37-22-3.16-9.65,39.69-56.12,48-67,54.77-71.72,121.18-130.37,186-192,11.19.1,22.23,2.15,29,7,1,.67,2,1.33,3,2-5.33,19.33-10.67,38.67-16,58-6.33,32.33-12.67,64.67-19,97-6.69,36.68,4.06,82.94-4,117-7.57,5.57-12.22,5.81-23,3ZM764.29,1033.5c-6.34,12.81-29.12,10-48,10-31.12,0-139.57,6.1-157-4-14.87-7.57-9-87.4-9-113v-244c0-37.22-5.91-87.24,3-119l12-6h124c24.86,0,53.99-1.41,73,4,7.55,13.99,6.93,49.28,2,66-27.24,15.74-101.25-6.16-125,11-14.47,10.46-8.19,55.27-8,77,.14,15.89,2,26.58,6,37,19.79,11.41,67.24-1.22,85,10,10.05,6.35,7.07,31.79,7,48-1,8-2,16-3,24-18.94,12.04-77.74-3.76-90,15-6.04,9.25-4.38,26.92-5,41-.9,20.44-4.59,57.63,9,67,20.37,14.05,92.89.63,121,8,7.35,10.82,10.79,53.11,3,68ZM910.29,715.5v134c.03,30.82-2.62,63.86,15,77,7.01,5.23,19.11,7.37,29,4,42.14-14.36,12.5-58.87,32-90,11.81-2.7,50.12-6.87,61,0,12.51,7.9,6.5,81.8,2,96-17.74,55.99-91.73,98.51-157,59-17.58-10.64-37.81-29.26-46-49-8.06-19.43-4.18-50.57-5-77-.33-43-.67-86-1-129,0-39.12-5.2-90.52,7-119,14.9-34.78,38.83-44.85,73-61,19.33.33,38.67.67,58,1,38.36,9.04,66.43,45.52,74,87,2.78,15.22,6.08,51.25-2,63-7.12,11.7-52.14,7.49-66,4-16.55-30.97,9.54-71.95-33-82-20.87-4.93-34.69,12.71-39,25-5.09,14.52-2,39.08-2,57ZM1361.29,996.5c-14.14,7.62-50.3,6.99-67,2-14.66-21.32-5.12-79.04-27-93-5.65-3.6-16.15-3.05-25-3-42.88.25-35.26,58.25-44,92-13.49,9.68-52.03,8.93-71,4-9.01-16.58,8.42-91.42,13-113,12.33-70.33,24.67-140.67,37-211,7.49-35.71,10.42-73.97,20-106,4-2,8-4,12-6,26.26-.05,56.97-1.6,80,2,16.31,24.21,15.15,68.18,22,101,13,74.99,26,150.01,39,225,5.8,27.69,18.63,80.27,11,106ZM1696.29,1029.5c-14.38,9.65-65.56,11.82-81,1-11.72-8.21-15.3-38.05-20-53-12.33-37-24.67-74-37-111-5.02-14.31-7.76-42.94-20-50-18.7-5.22-15,31.47-15,49,0,40.2,9.11,144.18-7,168-18.54,4.35-49.17,4.41-66-1-13.45-20.4-7-72-7-104v-258c0-28.32-6.09-97.2,9-109,12.53-2.43,66.76-4.08,76,1,14.31,6.88,17.06,36.76,22,53,12.67,41.33,25.33,82.67,38,124,5.09,16.42,5.86,39.53,20,47,1.67-.33,3.33-.67,5-1,8.11-14.19,7-37.12,7-60,0-48.05-7.36-120,4-160,6.27-3.73,14.58-2.9,23-6,13.54-.14,43-2.12,49,6,8.93,12.09,3,92.35,3,117v231c0,36.79,5.02,84.48-3,116ZM1731.29,409.5c5.46-23.56,25.37-45.97,19-74-1-.67-2-1.33-3-2-11.38,9.71-16.75,23.22-26,35-18.12,23.07-47.68,45.7-78,56-33.57,11.4-66.51-1.31-60-34-15.38,5.84-64.63,28.13-81,5-3.67-10.67-7.33-21.33-11-32v-2c-18.33,13.08-77.88,62.52-107,57-12.67-2.4-23.85-10.7-33-17-11.23-7.73-23.62-14.49-25-32-16.98,13.93-27.28,40.35-50,48-18.64,6.28-63.29-22.16-66-38-19.46,16.04-28.69,43.58-55,53-9.52,2.22-26-7.96-34-12-12.84-6.48-29.85-12.89-38-24-18.9-25.76,16.04-80.85,26-97-12.29,3.01-20.8,5.07-31-2-8,51.27-58.29,99-100,116-26.54,10.82-82.28-23.45-87-45h-1c-19.74,15.77-39.32,57.98-79,43-10.26-3.87-18.65-10.55-22-21-9.16-28.55,24.52-58.32,16-81v-2c-20.76.9-61.4,89.86-68,112-10.24,1.25-22.27-7.98-30-13,3.06-36.7,26.61-54.16,26-96-28.92.01-74.29,90.79-84,116-11.51,5.02-21.82-7.17-29-13,3.23-40.81,46.34-78.07,38-115v-6c-30.12,6.93-36.79,40.28-62,50-3.33-.33-6.67-.67-10-1-13.87-17.69,42.63-85.27,65-94,23.97-9.35,48.37,8.64,50,29h1c16.82-22.16,58.89-31.61,64,8,9.97-5.97,17.58-15.42,30-19,24.08-6.94,46.82,25.6,51,43,7.28,30.32-28.61,44.18-20,68v2c13.93-1.04,20.43-11.43,28-19,12.67-13.67,25.33-27.33,38-41,17.36-27.31,43.79-86.13,95-76,25.76,5.1,36.85,34.41,21,59-12.91,20.03-42.92,35.66-68,43-5.07,8.11-7.2,18.54-4,30,30.99,21.28,104.84-46.82,113-67,5.64-13.93,3.43-38.1,7-51,15.48-1.59,16.71,9.26,29,12,38.8,8.66,79.89-25.2,97-41,11.58,1.79,15.52,15.22,19,25-1.5,11.99-16.68,16.02-23,24-13.33,16.83-65.26,84.34-47,114,23.92-3.27,77.66-54.74,89-73,14.9-23.99,16.13-53.16,43-65,15.44,6.49,21.64,20.37,27,37-15.87,22.4-31.91,49.71-31,88,.67.33,1.33.67,2,1,24.07-19.62,55.38-36.35,73-62,20.59-29.98,35.36-54.3,67-73,28.09-16.59,74.17-3.39,64,40-3.67,15.68-16.7,22.14-24,34h-2c-7-9.67-14-19.33-21-29-.67-.33-1.33-.67-2-1-27.16,13.36-48.53,53.43-29,89,24.89-2.5,99.96-44.89,111-60,15.09-20.65,37.09-58.54,78-51,18.39,3.39,28.08,15.23,42,22,6.07,6.18,8.95-3.64,20-1,7.79,3.15,14.99,12.2,18,20,5.63,15.82-33.37,56.53-34,86,.67.33,1.33.67,2,1,28.89-2.22,81.18-54.37,99-73,12.14-12.69,17.21-29.69,42-30,6.97,5.91,13.6,10.41,15,22,.67.33,1.33.67,2,1,15.96-36.65,66.37-49.79,81-2,6.85,22.37-17.09,61.41-3,76,29.18-3.26,57.76-53.63,79-70,.67-.67,1.33-1.33,2-2,4,6.67,8,13.33,12,20-21.05,31.56-43.07,62.2-78,80-9.51,4.85-31.74,14.77-45,6-19.47-12.87-13.8-57.57-15-86-41.78,7.69-18.16,109.33-85,74ZM2045.29,1026.5c-12.19,28.59-37.26,62.19-69,71-14,1-28,2-42,3-75.81,11.54-112.86-27.29-136-73-9.87-19.5-23.21-50.46-15-78,15.22-10.31,57.34-15.25,78-9,16.14,24.27,14.33,62.14,43,74,47.52,19.65,69.39-44.83,53-83-7.93-18.46-25.6-31.61-39-45-51.47-51.45-165.67-133.18-126-251,6.69-19.87,17.03-36.37,29-51,14.08-17.21,39.17-28.75,64-35,8.33-1.33,16.67-2.67,25-4,71.34-1.14,106.98,26.32,128,75,4.4,10.2,19.27,41.13,10,53-5.41,9-64.1,24.2-79,14-9.31-6.37-10.06-25.13-16-35-15.65-25.99-54.73-27.19-67,3-21.55,53,23.95,100.99,50,122,55.11,44.46,156.48,137.62,109,249ZM2273.29,16.5h14v39h7V16.5h14v-6h-35v6ZM2350.29,10.5c-4,10.67-8,21.33-12,32-4.67-10.67-9.33-21.33-14-32h-11v45h7V21.5h1c4.33,11.33,8.67,22.67,13,34,6.81,4.15,18.23-28.88,19-34,.33,11.33.67,22.67,1,34h7V10.5h-11ZM465.29,297.5c-7.67,7.67-15.33,15.33-23,23,20.33,3,40.67,6,61,9,8.33-33.33,16.67-66.67,25-100-17.31,16.52-52.96,47.04-63,68ZM991.29,271.5c-1.33-1-2.67-2-4-3-14.66,6.99-28.51,15.39-31,34,17.68-4,27.95-16.49,35-31ZM1584.29,296.5c-11.49,8.95-55.51,50-44,71,5.98,7.95,22.36,2.6,29-1,17.7-9.59,39.82-36.77,44-59-7.01-7.52-13.59-11.53-29-11ZM320.29,650.5c-4.33,1.33-8.67,2.67-13,4-2.33,4.33-4.67,8.67-7,13-3.47,15.2-2.16,127.59,4,137,6.03,9.21,25.19,14.06,41,10,61.76-15.87,68.46-165.71-25-164ZM1241.29,754.5c-11,15.6-14.55,47.1-14,73,9.1,5.96,23.6,5.58,35,2,8.32-18.2-5.22-60.2-12-74-3-.33-6-.67-9-1Z" fill="none" stroke="#000" stroke-miterlimit="100"/>
    </g>
  </g>
</svg>