<?xml version="1.0" encoding="UTF-8"?>
<svg xmlns="http://www.w3.org/2000/svg" version="1.1" viewBox="0 0 1000 1000">
  <defs>
    <style>
      .cls-1 {
        fill: #f7f8fa;
      }

      .cls-2 {
        fill: #555;
      }
    </style>
  </defs>
  <!-- Generator: Adobe Illustrator 28.6.0, SVG Export Plug-In . SVG Version: 1.2.0 Build 709)  -->
  <g>
    <g id="im-cn">
      <rect id="cn" class="cls-1" width="1000" height="1000"/>
      <g>
        <path class="cls-2" d="M661.6,393.8v208.5h-323.2v-208.5h323.2M674.7,367.9h-349.4c-7.1,0-12.8,5.7-12.8,12.8v234.6c0,7.1,5.7,12.8,12.8,12.8h349.4c7.1,0,12.8-5.7,12.8-12.8v-234.6c0-7.1-5.7-12.8-12.8-12.8h0Z"/>
        <path class="cls-2" d="M675.4,620.8h-350.8c-6.7,0-12.1-5.8-12.1-12.9v-27.4c0-3.9,1.6-7.5,4.4-10l110.4-97.5c4.7-4.2,11.7-3.9,16.1.7l74.2,76.5,72.1-39.1c4-2.2,8.9-1.8,12.6,1.1l80.2,62.2c3.1,2.4,5,6.3,5,10.5v23.2c0,7.1-5.4,12.9-12.1,12.9h0ZM336.7,620.7h326.6v-29.4l-69.2-53.7-73.2,39.7c-4.6,2.5-10.2,1.6-13.9-2.2l-72.6-74.9-97.7,86.3v34.2h0Z"/>
        <path class="cls-2" d="M549.1,493c-19.5,0-35.3-15.8-35.3-35.3s15.8-35.3,35.3-35.3,35.3,15.8,35.3,35.3-15.8,35.3-35.3,35.3ZM549.1,437.4c-11.2,0-20.3,9.1-20.3,20.3s9.1,20.3,20.3,20.3,20.3-9.1,20.3-20.3-9.1-20.3-20.3-20.3Z"/>
      </g>
    </g>
  </g>
</svg>