<?xml version="1.0" encoding="UTF-8"?>
<svg id="file-cn" xmlns="http://www.w3.org/2000/svg" viewBox="0 0 744.39 959.52">
  <path id="btm" d="M626.94,888.01c-2.27,30.18-27.42,53.51-57.68,53.51H163.19c-30.06,0-55.1-23.02-57.64-52.97L53.74,276.69c-.24-2.78,1.96-5.17,4.75-5.17h609.67c2.78,0,4.96,2.36,4.76,5.13l-45.97,611.36Z" fill="none" stroke="#555" stroke-miterlimit="10" stroke-width="36"/>
  <g id="top">
    <path id="handle" d="M257.3,124.1c8.23-66.31,68.65-113.39,134.96-105.17s113.39,68.65,105.17,134.96" fill="none" stroke="#555" stroke-miterlimit="10" stroke-width="36"/>
    <path id="top-2" data-name="top" d="M696.63,274.41l-23.33-2.89L34.69,192.28c-10.43-1.29-17.84-10.8-16.54-21.23l8.39-67.59c1.29-10.43,10.8-17.84,21.23-16.54l661.94,82.13c10.43,1.29,17.84,10.8,16.54,21.23l-8.39,67.59c-1.29,10.43-10.8,17.84-21.23,16.54Z" fill="none" stroke="#555" stroke-miterlimit="10" stroke-width="36"/>
  </g>
  <g id="t-ls">
    <line x1="363.3" y1="836.99" x2="363.3" y2="359.64" fill="none" stroke="#555" stroke-linecap="round" stroke-miterlimit="10" stroke-width="36"/>
    <line x1="518.3" y1="804.62" x2="559.58" y2="400.74" fill="none" stroke="#555" stroke-linecap="round" stroke-miterlimit="10" stroke-width="36"/>
    <line x1="208.3" y1="804.62" x2="167.01" y2="400.74" fill="none" stroke="#555" stroke-linecap="round" stroke-miterlimit="10" stroke-width="36"/>
  </g>
</svg>