<?xml version="1.0" encoding="UTF-8"?>
<svg id="box-cn" xmlns="http://www.w3.org/2000/svg" viewBox="0 0 1500 1000" preserveAspectRatio='none'>
  <path d="M1401.56,1000v-4.3h39.53s0,4.3,0,4.3h-.2s-39.33,0-39.33,0ZM1372.98,1000h-39.3v-4.3h39.3v4.3ZM1305.1,1000h-39.3v-4.3h39.3v4.3ZM1237.21,1000h-39.3v-4.3h39.3v4.3ZM1169.33,1000h-39.3v-4.3h39.3v4.3ZM1101.44,1000h-39.3v-4.3h39.3v4.3ZM1033.56,1000h-39.3v-4.3h39.3v4.3ZM965.67,1000h-39.3v-4.3h39.3v4.3ZM897.79,1000h-39.3v-4.3h39.3v4.3ZM829.9,1000h-39.3v-4.3h39.3v4.3ZM762.02,1000h-39.3v-4.3h39.3v4.3ZM694.13,1000h-39.3v-4.3h39.3v4.3ZM626.25,1000h-39.3v-4.3h39.3v4.3ZM558.36,1000h-39.3v-4.3h39.3v4.3ZM490.48,1000h-39.3v-4.3h39.3v4.3ZM422.59,1000h-39.3v-4.3h39.3v4.3ZM354.71,1000h-39.3v-4.3h39.3v4.3ZM286.82,1000h-39.3v-4.3h39.3v4.3ZM218.94,1000h-39.3v-4.3h39.3v4.3ZM151.05,1000h-39.3v-4.3h39.3v4.3ZM83.17,1000h-24.03c-5.31,0-10.58-.7-15.65-2.09l1.14-4.15c4.7,1.29,9.59,1.94,14.52,1.94h24.03v4.3ZM1469.5,992.62l-2.09-3.76c11.12-6.16,19.81-16.03,24.46-27.81l4.01,1.58c-5.02,12.7-14.39,23.36-26.38,29.99ZM18,983.37c-9.86-9.54-16.12-22.26-17.63-35.82l4.28-.48c1.4,12.57,7.21,24.37,16.35,33.21l-3,3.09ZM1500,933.8h-4.31v-39.25h4.31v39.25ZM4.31,918.78H0v-39.25h4.31v39.25ZM1500,866.01h-4.31v-39.25h4.31v39.25ZM4.31,851H0v-39.25h4.31v39.25ZM1500,798.22h-4.31v-39.25h4.31v39.25ZM4.31,783.21H0v-39.25h4.31v39.25ZM1500,730.44h-4.31v-39.25h4.31v39.25ZM4.31,715.42H0v-39.25h4.31v39.25ZM1500,662.65h-4.31v-39.25h4.31v39.25ZM4.31,647.63H0v-39.25h4.31v39.25ZM1500,594.86h-4.31v-39.25h4.31v39.25ZM4.31,579.84H0v-39.25h4.31v39.25ZM1500,527.07h-4.31v-39.25h4.31v39.25ZM4.31,512.06H0v-39.25h4.31v39.25ZM1500,459.28h-4.31v-39.25h4.31v39.25ZM4.31,444.27H0v-39.25h4.31v39.25ZM1500,391.5h-4.31v-39.25h4.31v39.25ZM4.31,376.48H0v-39.25h4.31v39.25ZM1500,323.71h-4.31v-39.25h4.31v39.25ZM4.31,308.69H0v-39.25h4.31v39.25ZM1500,255.92h-4.31v-39.25h4.31v39.25ZM4.31,240.91H0v-39.25h4.31v39.25ZM1500,188.13h-4.31v-39.25h4.31v39.25ZM4.31,173.12H0v-39.25h4.31v39.25ZM1500,120.35h-4.31v-39.25h4.31v39.25ZM4.31,105.33H0v-39.25h4.31v39.25ZM1495.34,52.82c-1.43-12.57-7.26-24.35-16.42-33.18l2.99-3.1c9.88,9.52,16.17,22.23,17.71,35.79l-4.28.48ZM8.16,38.85l-4-1.59c5.05-12.69,14.44-23.33,26.44-29.94l2.08,3.77c-11.13,6.13-19.84,15.99-24.52,27.76ZM1455.27,6.21c-4.67-1.27-9.52-1.91-14.41-1.91h-24.15V0h24.15c5.27,0,10.5.69,15.54,2.06l-1.13,4.15ZM59.02,4.3V0h39.3s0,4.3,0,4.3h-39.3ZM1388.14,4.3h-39.3V0h39.3v4.3ZM1320.25,4.3h-39.3V0h39.3v4.3ZM1252.37,4.3h-39.3V0h39.3v4.3ZM1184.48,4.3h-39.3V0h39.3v4.3ZM1116.6,4.3h-39.3V0h39.3v4.3ZM1048.71,4.3h-39.3V0h39.3v4.3ZM980.83,4.3h-39.3V0h39.3v4.3ZM912.94,4.3h-39.3V0h39.3v4.3ZM845.06,4.3h-39.3V0h39.3v4.3ZM777.17,4.3h-39.3V0h39.3v4.3ZM709.29,4.3h-39.3V0h39.3v4.3ZM641.4,4.3h-39.3V0h39.3v4.3ZM573.52,4.3h-39.3V0h39.3v4.3ZM505.63,4.3h-39.3V0h39.3v4.3ZM437.75,4.3h-39.3V0h39.3v4.3ZM369.86,4.3h-39.3V0h39.3v4.3ZM301.97,4.3h-39.3V0h39.3v4.3ZM234.09,4.3h-39.3V0h39.3v4.3ZM166.2,4.3h-39.3V0h39.3v4.3Z" fill="#555"/>
</svg>