<svg width="26" height="24" viewBox="0 0 26 24" fill="none" xmlns="http://www.w3.org/2000/svg">
							<g clip-path="url(#clip0_597_981)">
								<path d="M25.9883 12.0325C25.9883 14.0987 25.976 16.1648 25.9976 18.2309C26.0022 18.6625 25.885 18.8944 25.466 19.0788C21.8397 20.6781 18.2211 22.3142 14.587 23.8998C14.2714 24.0375 13.7884 24.0191 13.4652 23.8837C11.7978 23.1843 10.166 22.4007 8.49864 21.7028C8.13947 21.5703 7.74371 21.5736 7.38682 21.712C5.00733 22.7404 2.33311 22.038 0.905726 19.9596C-0.534775 17.8651 -0.219208 15.1677 1.62868 13.338C1.90657 13.0408 2.07041 12.6562 2.09161 12.2514C2.13482 10.1041 2.13019 7.95614 2.10087 5.80889C2.09315 5.30001 2.26444 5.06815 2.72969 4.86306C6.31204 3.28745 9.87433 1.66745 13.4613 0.101786C13.8472 -0.0436727 14.2739 -0.0412174 14.658 0.108673C18.2442 1.6751 21.8065 3.2951 25.3888 4.86995C25.8626 5.07809 26.0099 5.32527 26.0061 5.82496C25.9714 7.90027 25.9883 9.9664 25.9883 12.0325ZM5.8275 5.15691C8.58043 6.38741 11.159 7.55362 13.7568 8.67699C13.996 8.78029 14.3849 8.6701 14.6565 8.55149C16.8801 7.57658 19.0921 6.57642 21.3065 5.58315C21.582 5.45918 21.8528 5.32603 22.2386 5.14391C19.5142 3.92795 16.9318 2.77168 14.3409 1.62996C14.1458 1.55768 13.9305 1.56069 13.7375 1.63837C11.1459 2.77704 8.56499 3.93407 5.8275 5.15615V5.15691ZM8.78412 17.1152C8.78977 16.1651 8.41789 15.251 7.74901 14.5709C7.08012 13.8907 6.16805 13.4992 5.21025 13.4811C3.21577 13.4467 1.51603 15.118 1.52606 17.103C1.53655 18.0534 1.92279 18.9618 2.60169 19.6327C3.28059 20.3036 4.19789 20.6834 5.15624 20.6904C6.11468 20.6908 7.0343 20.3149 7.7141 19.6448C8.39391 18.9747 8.77861 18.065 8.78412 17.1144V17.1152Z" fill='#C4003F'></path>
								<path d="M3.55844 15.9352L4.91639 17.204L6.70332 15.2641L7.60836 16.425L4.85312 19.1538L2.57471 16.8275L3.55844 15.9352Z" fill='#C4003F'></path>
							</g>
							<defs>
								<clipPath id="clip0_597_981">
									<rect width="26" height="24" fill="white"></rect>
								</clipPath>
							</defs>
						</svg>